STARTFONT 2.1
FONT -FontForge-Hanalei-Book-R-Normal--32-320-72-72-P-162-ISO10646-1
SIZE 32 72 72
FONTBOUNDINGBOX 41 41 -2 -8
COMMENT "Generated by fontforge, http://fontforge.sourceforge.net"
COMMENT "Copyright (c) 2012 by Brian J. Bonislawsky DBA Astigmatic (AOETI) (astigma@astigmatic.com), with ReservedFont Name "Hanalei""
STARTPROPERTIES 39
FOUNDRY "FontForge"
FAMILY_NAME "Hanalei"
WEIGHT_NAME "Book"
SLANT "R"
SETWIDTH_NAME "Normal"
ADD_STYLE_NAME ""
PIXEL_SIZE 32
POINT_SIZE 320
RESOLUTION_X 72
RESOLUTION_Y 72
SPACING "P"
AVERAGE_WIDTH 162
CHARSET_REGISTRY "ISO10646"
CHARSET_ENCODING "1"
FONTNAME_REGISTRY ""
CHARSET_COLLECTIONS "ISO8859-2 ISO8859-9 ISO8859-4 ISO10646-1"
FONT_NAME "Hanalei-Regular"
FACE_NAME "Hanalei"
COPYRIGHT "Copyright (c) 2012 by Brian J. Bonislawsky DBA Astigmatic (AOETI) (astigma@astigmatic.com), with ReservedFont Name "Hanalei""
FONT_VERSION "1.000"
FONT_ASCENT 26
FONT_DESCENT 6
UNDERLINE_POSITION -4
UNDERLINE_THICKNESS 1
X_HEIGHT 21
CAP_HEIGHT 21
RAW_ASCENT 799
RAW_DESCENT 200
NORM_SPACE 6
RELATIVE_WEIGHT 40
RELATIVE_SETWIDTH 50
SUPERSCRIPT_X 0
SUPERSCRIPT_Y 15
SUPERSCRIPT_SIZE 20
SUBSCRIPT_X 0
SUBSCRIPT_Y 4
SUBSCRIPT_SIZE 20
AVG_LOWERCASE_WIDTH 174
AVG_UPPERCASE_WIDTH 171
ENDPROPERTIES
CHARS 366
STARTCHAR space
ENCODING 32
SWIDTH 200 0
DWIDTH 6 0
BBX 1 1 0 0
BITMAP
00
ENDCHAR
STARTCHAR exclam
ENCODING 33
SWIDTH 257 0
DWIDTH 8 0
BBX 6 22 1 0
BITMAP
78
84
84
84
44
44
44
F4
8C
84
84
44
44
84
84
78
00
70
88
88
88
F8
ENDCHAR
STARTCHAR quotedbl
ENCODING 34
SWIDTH 476 0
DWIDTH 15 0
BBX 13 14 1 10
BITMAP
3060
CC98
8508
8488
8488
8488
F5F8
8508
8488
8488
8488
8508
8D88
7070
ENDCHAR
STARTCHAR numbersign
ENCODING 35
SWIDTH 1076 0
DWIDTH 34 0
BBX 33 22 1 0
BITMAP
7F0F8FFE00
4310902100
4508902700
4508903900
4488901080
44909FF100
7456911100
CBD9911100
4430911100
4430911100
463091FF00
4610912100
45089E2100
FB7F902100
458893FD00
44848C0200
4484860000
444289FC00
4441880200
8442880200
8424880400
7C1F07FC00
ENDCHAR
STARTCHAR dollar
ENCODING 36
SWIDTH 453 0
DWIDTH 15 0
BBX 13 29 1 -4
BITMAP
0F00
1080
0880
0880
08E0
0990
0E08
F208
8208
8170
8380
8C00
F300
8280
6460
1410
0C08
0210
0F30
72C8
8208
8170
8380
8C80
7880
0880
0880
1080
0F00
ENDCHAR
STARTCHAR percent
ENCODING 37
SWIDTH 889 0
DWIDTH 28 0
BBX 27 22 1 0
BITMAP
7F000000
E0878000
90C44000
9CC48000
93448000
92488000
92488000
B24E8000
CE510000
C2512000
C2515F80
3F927040
001288A0
003A8FA0
00269220
00229220
00249220
0024BA20
0044C620
0044C220
003C41C0
00003F80
ENDCHAR
STARTCHAR ampersand
ENCODING 38
SWIDTH 627 0
DWIDTH 20 0
BBX 20 23 0 0
BITMAP
07F000
071F80
089040
109640
108940
087080
045080
042100
05E200
022400
061400
091800
110800
108460
21BF90
42C410
87C210
852210
C921F0
B92080
807080
879100
781E00
ENDCHAR
STARTCHAR quotesingle
ENCODING 39
SWIDTH 246 0
DWIDTH 8 0
BBX 6 14 1 10
BITMAP
30
CC
84
84
84
84
F4
84
84
84
84
84
8C
70
ENDCHAR
STARTCHAR parenleft
ENCODING 40
SWIDTH 387 0
DWIDTH 12 0
BBX 13 26 0 -2
BITMAP
03C0
0220
0420
0420
0840
1080
1C80
2300
2100
4200
8200
8400
8400
CC00
FA00
4100
2080
1280
1440
0840
0420
0410
0208
0110
0130
00C0
ENDCHAR
STARTCHAR parenright
ENCODING 41
SWIDTH 386 0
DWIDTH 12 0
BBX 13 26 0 -2
BITMAP
1C00
2200
4200
2100
1100
1080
0B40
0C40
0820
0420
0210
0208
0108
0310
02F0
0420
0840
1680
1180
2080
4100
8200
8400
8400
4800
3800
ENDCHAR
STARTCHAR asterisk
ENCODING 42
SWIDTH 517 0
DWIDTH 17 0
BBX 15 15 1 8
BITMAP
0780
0480
0480
4484
A49C
9FE2
8442
787C
0800
0EE0
1320
2490
2448
2850
1820
ENDCHAR
STARTCHAR plus
ENCODING 43
SWIDTH 458 0
DWIDTH 15 0
BBX 13 13 1 4
BITMAP
0F80
0840
0880
4880
9FF0
8108
8108
8208
BFF0
4880
0880
0880
0F80
ENDCHAR
STARTCHAR comma
ENCODING 44
SWIDTH 228 0
DWIDTH 7 0
BBX 8 8 -1 -4
BITMAP
1E
12
21
42
84
84
88
70
ENDCHAR
STARTCHAR hyphen
ENCODING 45
SWIDTH 465 0
DWIDTH 15 0
BBX 13 6 1 8
BITMAP
4210
B7E8
8108
8108
8208
FFF0
ENDCHAR
STARTCHAR period
ENCODING 46
SWIDTH 202 0
DWIDTH 6 0
BBX 5 5 1 0
BITMAP
70
88
88
88
F8
ENDCHAR
STARTCHAR slash
ENCODING 47
SWIDTH 453 0
DWIDTH 15 0
BBX 13 22 1 0
BITMAP
01E0
0110
0108
0108
0210
0220
0620
09A0
0840
0840
0880
1080
3100
2D00
2300
4200
4200
8400
8400
8400
4400
3800
ENDCHAR
STARTCHAR zero
ENCODING 48
SWIDTH 646 0
DWIDTH 21 0
BBX 21 23 0 0
BITMAP
01C000
013800
021800
041400
042200
084100
16A080
119280
219440
410820
920410
EC0208
C40308
820508
C118B0
209440
136280
0C4100
048200
030400
010800
008800
007000
ENDCHAR
STARTCHAR one
ENCODING 49
SWIDTH 400 0
DWIDTH 13 0
BBX 12 24 0 -1
BITMAP
0200
05E0
0A10
1210
6210
8220
8620
8A10
73D0
0210
0220
0220
0220
0220
0210
03D0
0220
0220
0220
0220
0220
0410
0220
01C0
ENDCHAR
STARTCHAR two
ENCODING 50
SWIDTH 502 0
DWIDTH 16 0
BBX 16 22 0 0
BITMAP
0360
04A0
0850
1048
2088
C186
8241
4422
3822
005D
0183
0304
0488
0C50
1820
2040
2080
61FE
5282
4C82
4082
7FFE
ENDCHAR
STARTCHAR three
ENCODING 51
SWIDTH 456 0
DWIDTH 15 0
BBX 13 23 1 -1
BITMAP
7800
87C0
8020
8030
8050
7FC8
0C10
0A60
1140
6680
4900
5080
7060
3818
0478
0788
1C08
E208
8238
80C0
8F00
D000
2000
ENDCHAR
STARTCHAR four
ENCODING 52
SWIDTH 514 0
DWIDTH 16 0
BBX 16 23 0 -1
BITMAP
01FC
0122
0222
0214
0424
0844
1CC4
12FA
2144
4244
43FE
8441
8841
C841
303E
1FC4
0044
0044
0044
0084
0082
004C
0030
ENDCHAR
STARTCHAR five
ENCODING 53
SWIDTH 500 0
DWIDTH 16 0
BBX 14 22 1 0
BITMAP
73F8
8D04
8504
8904
88F8
8F00
8800
A800
DFF8
C108
417C
4144
7FC4
0044
0044
0044
6654
9BEC
820C
8204
8208
FFF8
ENDCHAR
STARTCHAR six
ENCODING 54
SWIDTH 520 0
DWIDTH 17 0
BBX 17 23 0 -1
BITMAP
0F8000
084000
084000
088000
088000
108000
1C8000
128000
114000
112000
211800
210C00
211200
3EA180
425880
423480
44C500
470200
840200
841C00
846000
7C8000
030000
ENDCHAR
STARTCHAR seven
ENCODING 55
SWIDTH 423 0
DWIDTH 14 0
BBX 14 22 0 0
BITMAP
7FF8
8208
8208
8204
804C
7FB8
0108
0390
0270
0210
0220
0420
0420
0720
08A0
0840
0880
1080
1080
2080
1080
0F00
ENDCHAR
STARTCHAR eight
ENCODING 56
SWIDTH 527 0
DWIDTH 17 0
BBX 16 23 0 -1
BITMAP
3FEE
4051
4041
405D
6FF2
5221
2122
10C2
1344
0C44
0828
0C28
0A10
1118
1168
2184
42C2
43C2
8421
4421
7831
17FF
0800
ENDCHAR
STARTCHAR nine
ENCODING 57
SWIDTH 500 0
DWIDTH 16 0
BBX 16 22 0 0
BITMAP
0030
03CE
1E09
E109
8109
80F2
8742
DCE4
A294
4184
3108
0908
0610
0710
02D0
0430
0420
0840
0840
1080
1080
0F80
ENDCHAR
STARTCHAR colon
ENCODING 58
SWIDTH 245 0
DWIDTH 8 0
BBX 6 17 1 0
BITMAP
30
CC
48
48
C8
30
00
00
00
00
00
00
70
8C
48
48
F8
ENDCHAR
STARTCHAR semicolon
ENCODING 59
SWIDTH 270 0
DWIDTH 9 0
BBX 7 21 0 -4
BITMAP
0C
32
22
22
22
1C
00
00
00
00
00
00
00
1C
22
22
42
84
88
90
70
ENDCHAR
STARTCHAR less
ENCODING 60
SWIDTH 445 0
DWIDTH 14 0
BBX 12 18 1 2
BITMAP
0040
00A0
0310
0C10
1210
6260
8080
8300
8400
CC00
B300
8180
E270
1210
0C10
0310
00A0
0040
ENDCHAR
STARTCHAR equal
ENCODING 61
SWIDTH 484 0
DWIDTH 16 0
BBX 13 15 1 4
BITMAP
4000
7FF8
8108
8108
8108
5EE8
6118
0000
4000
7FF8
8108
8108
8108
5EE8
6118
ENDCHAR
STARTCHAR greater
ENCODING 62
SWIDTH 445 0
DWIDTH 14 0
BBX 13 18 1 2
BITMAP
3000
4800
8600
8100
8280
6460
1010
0C08
0210
0330
0CC8
1808
6430
82C0
8100
8E00
5000
3000
ENDCHAR
STARTCHAR question
ENCODING 63
SWIDTH 455 0
DWIDTH 15 0
BBX 13 23 1 0
BITMAP
2000
5800
8700
81C0
8138
C208
3808
0798
0478
1818
3060
3080
2900
2600
2200
2200
3C00
0000
3800
4400
2400
2400
7C00
ENDCHAR
STARTCHAR at
ENCODING 64
SWIDTH 812 0
DWIDTH 26 0
BBX 24 25 1 -2
BITMAP
3FFFF0
208230
608248
669048
59EFC4
499144
496EBC
4A08A4
FAC8A4
493F62
4924A2
4A249E
4A4492
8AC491
FB3FF1
4E0451
490451
49F84E
880FFE
8F0000
89F000
711000
3D1000
03D000
002000
ENDCHAR
STARTCHAR A
ENCODING 65
SWIDTH 507 0
DWIDTH 16 0
BBX 17 22 0 0
BITMAP
0F8000
084000
087000
089000
089000
109000
1C9000
128800
11B800
11C800
218800
214600
225D00
3DE080
424080
424080
424F00
44F200
872100
842100
842100
781E00
ENDCHAR
STARTCHAR B
ENCODING 66
SWIDTH 533 0
DWIDTH 17 0
BBX 16 25 1 -1
BITMAP
0800
1600
E1C0
6070
604E
7841
4681
45C1
B472
CD8E
8702
448C
44B0
4450
858C
FE02
8582
84E2
4715
B889
C08E
C030
C1C0
4600
3800
ENDCHAR
STARTCHAR C
ENCODING 67
SWIDTH 515 0
DWIDTH 16 0
BBX 16 24 0 -1
BITMAP
0800
17F3
204D
2021
2041
1F81
117F
2100
3D00
2100
2200
2200
2200
4200
7E00
4200
4202
45FD
4241
8241
4641
381F
27E0
1800
ENDCHAR
STARTCHAR D
ENCODING 68
SWIDTH 520 0
DWIDTH 17 0
BBX 16 24 1 -1
BITMAP
0E00
F100
6180
60C0
5020
4830
4430
B6C8
CD06
8481
4461
4422
4437
8449
FD82
8784
8648
4430
4420
8440
8480
8500
7A00
0600
ENDCHAR
STARTCHAR E
ENCODING 69
SWIDTH 490 0
DWIDTH 16 0
BBX 15 22 1 0
BITMAP
FFFC
4482
4482
4482
467C
4580
B400
CC00
87E0
4420
4410
4410
8720
FCE0
8400
8400
47F8
4484
8484
8504
86E4
7918
ENDCHAR
STARTCHAR F
ENCODING 70
SWIDTH 475 0
DWIDTH 15 0
BBX 15 22 1 0
BITMAP
FFFC
4482
4482
4482
467C
4580
B400
CC00
87E0
4420
4410
4410
8720
FCE0
8400
8400
4400
4400
8400
8400
8400
7800
ENDCHAR
STARTCHAR G
ENCODING 71
SWIDTH 557 0
DWIDTH 18 0
BBX 18 24 0 -1
BITMAP
080000
17F300
204D00
202100
204100
1F8100
117F00
210000
3D0000
210000
220F80
221080
221080
420880
7E0880
421680
421980
45F080
424880
824880
464880
3810C0
27EF00
180000
ENDCHAR
STARTCHAR H
ENCODING 72
SWIDTH 611 0
DWIDTH 20 0
BBX 19 23 1 0
BITMAP
100600
EE3180
441080
441080
441100
441100
441100
B41080
CC1E80
841100
441100
4411C0
441E40
846820
FF8820
850840
850780
457900
879100
841100
842080
842180
781E00
ENDCHAR
STARTCHAR I
ENCODING 73
SWIDTH 266 0
DWIDTH 9 0
BBX 7 23 1 0
BITMAP
10
EE
44
44
44
44
44
B4
CC
84
44
44
44
84
FC
84
84
44
84
84
84
84
78
ENDCHAR
STARTCHAR J
ENCODING 74
SWIDTH 484 0
DWIDTH 16 0
BBX 16 23 -1 -1
BITMAP
003E
0021
0022
0022
0022
0022
005A
0066
0042
0022
1822
2422
4422
827E
4142
22A2
1462
0842
0832
0412
0212
013C
01C0
ENDCHAR
STARTCHAR K
ENCODING 75
SWIDTH 541 0
DWIDTH 17 0
BBX 17 22 1 0
BITMAP
FC0C00
460B00
441100
442080
444100
448200
B56400
CD1800
860800
441000
442000
445000
869000
FC8800
85B400
86C400
448400
444200
844200
842100
842200
783C00
ENDCHAR
STARTCHAR L
ENCODING 76
SWIDTH 467 0
DWIDTH 15 0
BBX 15 23 1 0
BITMAP
1000
EE00
4400
4400
4400
4400
4400
B400
CC00
8400
4400
4400
4400
8400
FC00
8400
8400
47FC
8504
8502
8502
8444
7BBC
ENDCHAR
STARTCHAR M
ENCODING 77
SWIDTH 733 0
DWIDTH 23 0
BBX 24 22 0 0
BITMAP
1F83E0
108210
10C210
10C228
114428
114428
3D2F48
2328C8
215858
219868
231888
2310C4
4288C4
7A8EC4
46B4DC
424562
444542
444522
844222
842322
842221
783C3E
ENDCHAR
STARTCHAR N
ENCODING 78
SWIDTH 598 0
DWIDTH 19 0
BBX 17 22 1 0
BITMAP
FE1F80
451080
451080
451080
449080
449080
B45E80
CF5180
845080
443080
463080
461080
860880
FDEF80
850880
848480
448480
444300
844280
844280
844480
783F00
ENDCHAR
STARTCHAR O
ENCODING 79
SWIDTH 612 0
DWIDTH 20 0
BBX 19 24 0 -1
BITMAP
080000
17F700
2049C0
202180
204080
1F8180
117F80
210840
3D0F40
210840
220840
220440
220440
420440
7E07A0
420440
420540
44FEC0
432040
822060
462060
380FC0
27F000
180000
ENDCHAR
STARTCHAR P
ENCODING 80
SWIDTH 513 0
DWIDTH 16 0
BBX 16 23 1 0
BITMAP
1C00
6380
A060
6058
6047
5E81
4581
8472
FC6E
8482
4706
4488
4450
8420
E4C0
9D00
8600
8400
8400
8400
8400
8400
FC00
ENDCHAR
STARTCHAR Q
ENCODING 81
SWIDTH 612 0
DWIDTH 20 0
BBX 19 28 0 -5
BITMAP
080000
17F700
2049C0
202180
204080
1F8180
117F80
210840
3D0F40
210840
220840
220440
220440
420440
7E07A0
420440
420540
44FEC0
432040
822060
462060
381FC0
27E800
190800
010800
010800
019800
006000
ENDCHAR
STARTCHAR R
ENCODING 82
SWIDTH 532 0
DWIDTH 17 0
BBX 16 24 1 -1
BITMAP
1C00
6300
A060
6050
604F
5C81
4701
44E1
FC3A
84C6
8702
46EC
4510
4610
8508
FD84
86B4
8444
4442
8421
8421
8411
C416
3808
ENDCHAR
STARTCHAR S
ENCODING 83
SWIDTH 442 0
DWIDTH 14 0
BBX 14 24 0 -1
BITMAP
0018
3FE4
5904
6504
4504
87F8
4200
2100
2100
1680
1880
0840
0420
0420
02D0
0310
0108
0708
7A84
8284
8248
80F0
5F00
2000
ENDCHAR
STARTCHAR T
ENCODING 84
SWIDTH 453 0
DWIDTH 15 0
BBX 15 23 0 0
BITMAP
4104
BFFC
8102
8102
8102
FFFC
0440
0440
0B40
0CC0
0840
0440
0440
0440
0840
0FC0
0840
0440
0440
0840
0840
0840
0780
ENDCHAR
STARTCHAR U
ENCODING 85
SWIDTH 583 0
DWIDTH 19 0
BBX 18 23 0 -1
BITMAP
3F1F80
211080
211080
211080
211080
221080
391680
251980
221080
220880
220880
220880
420880
7E0F40
420840
420E80
45F980
424180
824140
424140
381F40
27EF80
180000
ENDCHAR
STARTCHAR V
ENCODING 86
SWIDTH 506 0
DWIDTH 16 0
BBX 16 23 0 -1
BITMAP
3800
441E
8411
8411
4422
4422
4222
5E7A
6242
2244
2144
2144
1184
10F4
1F88
1088
0908
0910
0910
0A10
0910
0CE0
0200
ENDCHAR
STARTCHAR W
ENCODING 87
SWIDTH 735 0
DWIDTH 24 0
BBX 23 23 0 -1
BITMAP
180038
440046
843E42
844242
444244
446244
42A284
5EEDF4
62B184
229184
229188
219088
110908
11EF88
1F0978
111908
091510
0A1510
0A1610
0A1610
0A1210
09E330
060040
ENDCHAR
STARTCHAR X
ENCODING 88
SWIDTH 483 0
DWIDTH 15 0
BBX 15 22 0 0
BITMAP
1810
642C
4422
8442
4244
2184
2108
16C8
1A30
0A10
0C20
0860
0850
14F0
1288
2108
2184
4242
8442
8442
4426
3838
ENDCHAR
STARTCHAR Y
ENCODING 89
SWIDTH 484 0
DWIDTH 16 0
BBX 17 22 -1 0
BITMAP
180E00
680980
441080
821080
421100
212100
12F200
144A00
084200
088400
048400
030800
010800
02C800
023000
021000
042000
042000
084000
084000
064000
018000
ENDCHAR
STARTCHAR Z
ENCODING 90
SWIDTH 458 0
DWIDTH 15 0
BBX 15 22 0 0
BITMAP
3FF8
4104
4104
4106
2EFC
1108
0308
02D0
0250
0420
0420
0840
1880
1480
2280
2100
43F8
8304
8504
8504
6C78
3388
ENDCHAR
STARTCHAR bracketleft
ENCODING 91
SWIDTH 420 0
DWIDTH 13 0
BBX 12 27 1 -2
BITMAP
0060
0390
3C10
7810
8410
87E0
4400
4400
8400
8400
F400
8400
8400
8400
8400
8400
8400
FC00
8400
8400
8400
8400
87F0
8410
CC10
3210
1DE0
ENDCHAR
STARTCHAR backslash
ENCODING 92
SWIDTH 453 0
DWIDTH 15 0
BBX 14 22 0 0
BITMAP
1C00
6400
C400
4200
2200
2100
2380
1480
1080
0880
0840
0440
0460
04A0
0510
0210
0108
0108
0084
0084
0098
0060
ENDCHAR
STARTCHAR bracketright
ENCODING 93
SWIDTH 420 0
DWIDTH 13 0
BBX 13 27 0 -2
BITMAP
2000
5C00
83C0
81E0
8210
7E10
0210
0110
0110
0110
02F8
0110
0110
0110
0110
0110
0210
02F0
0110
0110
0110
0110
7F10
8208
8110
44E0
7BC0
ENDCHAR
STARTCHAR asciicircum
ENCODING 94
SWIDTH 353 0
DWIDTH 11 0
BBX 10 8 1 13
BITMAP
1C00
2600
2200
4500
8880
9480
9440
6380
ENDCHAR
STARTCHAR underscore
ENCODING 95
SWIDTH 499 0
DWIDTH 16 0
BBX 14 6 1 -8
BITMAP
2308
5DF8
8104
8104
8104
7FF8
ENDCHAR
STARTCHAR grave
ENCODING 96
SWIDTH 183 0
DWIDTH 6 0
BBX 6 7 0 24
BITMAP
70
90
88
48
24
24
18
ENDCHAR
STARTCHAR a
ENCODING 97
SWIDTH 507 0
DWIDTH 16 0
BBX 17 22 0 0
BITMAP
0F8000
084000
087000
089000
089000
109000
1C9000
128800
11B800
11C800
218800
214600
225D00
3DE080
424080
424080
424F00
44F200
872100
842100
842100
781E00
ENDCHAR
STARTCHAR b
ENCODING 98
SWIDTH 533 0
DWIDTH 17 0
BBX 16 25 1 -1
BITMAP
0800
1600
E1C0
6070
604E
7841
4681
45C1
B472
CD8E
8702
448C
44B0
4450
858C
FE02
8582
84E2
4715
B889
C08E
C030
C1C0
4600
3800
ENDCHAR
STARTCHAR c
ENCODING 99
SWIDTH 515 0
DWIDTH 16 0
BBX 16 24 0 -1
BITMAP
0800
17F3
204D
2021
2041
1F81
117F
2100
3D00
2100
2200
2200
2200
4200
7E00
4200
4202
45FD
4241
8241
4641
381F
27E0
1800
ENDCHAR
STARTCHAR d
ENCODING 100
SWIDTH 520 0
DWIDTH 17 0
BBX 16 24 1 -1
BITMAP
0E00
F100
6180
60C0
5020
4830
4430
B6C8
CD06
8481
4461
4422
4437
8449
FD82
8784
8648
4430
4420
8440
8480
8500
7A00
0600
ENDCHAR
STARTCHAR e
ENCODING 101
SWIDTH 490 0
DWIDTH 16 0
BBX 15 22 1 0
BITMAP
FFFC
4482
4482
4482
467C
4580
B400
CC00
87E0
4420
4410
4410
8720
FCE0
8400
8400
47F8
4484
8484
8504
86E4
7918
ENDCHAR
STARTCHAR f
ENCODING 102
SWIDTH 475 0
DWIDTH 15 0
BBX 15 22 1 0
BITMAP
FFFC
4482
4482
4482
467C
4580
B400
CC00
87E0
4420
4410
4410
8720
FCE0
8400
8400
4400
4400
8400
8400
8400
7800
ENDCHAR
STARTCHAR g
ENCODING 103
SWIDTH 557 0
DWIDTH 18 0
BBX 18 24 0 -1
BITMAP
080000
17F300
204D00
202100
204100
1F8100
117F00
210000
3D0000
210000
220F80
221080
221080
420880
7E0880
421680
421980
45F080
424880
824880
464880
3810C0
27EF00
180000
ENDCHAR
STARTCHAR h
ENCODING 104
SWIDTH 611 0
DWIDTH 20 0
BBX 19 23 1 0
BITMAP
100600
EE3180
441080
441080
441100
441100
441100
B41080
CC1E80
841100
441100
4411C0
441E40
846820
FF8820
850840
850780
457900
879100
841100
842080
842180
781E00
ENDCHAR
STARTCHAR i
ENCODING 105
SWIDTH 266 0
DWIDTH 9 0
BBX 7 23 1 0
BITMAP
10
EE
44
44
44
44
44
B4
CC
84
44
44
44
84
FC
84
84
44
84
84
84
84
78
ENDCHAR
STARTCHAR j
ENCODING 106
SWIDTH 482 0
DWIDTH 15 0
BBX 16 23 -1 -1
BITMAP
003E
0021
0022
0022
0022
0022
005A
0066
0042
0022
1822
2422
4422
827E
4142
22A2
1462
0842
0832
0412
0212
013C
01C0
ENDCHAR
STARTCHAR k
ENCODING 107
SWIDTH 541 0
DWIDTH 17 0
BBX 17 22 1 0
BITMAP
FC0C00
460B00
441100
442080
444100
448200
B56400
CD1800
860800
441000
442000
445000
869000
FC8800
85B400
86C400
448400
444200
844200
842100
842200
783C00
ENDCHAR
STARTCHAR l
ENCODING 108
SWIDTH 467 0
DWIDTH 15 0
BBX 15 23 1 0
BITMAP
1000
EE00
4400
4400
4400
4400
4400
B400
CC00
8400
4400
4400
4400
8400
FC00
8400
8400
47FC
8504
8502
8502
8444
7BBC
ENDCHAR
STARTCHAR m
ENCODING 109
SWIDTH 733 0
DWIDTH 23 0
BBX 24 22 0 0
BITMAP
1F83E0
108210
10C210
10C228
114428
114428
3D2F48
2328C8
215858
219868
231888
2310C4
4288C4
7A8EC4
46B4DC
424562
444542
444522
844222
842322
842221
783C3E
ENDCHAR
STARTCHAR n
ENCODING 110
SWIDTH 598 0
DWIDTH 19 0
BBX 17 22 1 0
BITMAP
FE1F80
451080
451080
451080
449080
449080
B45E80
CF5180
845080
443080
463080
461080
860880
FDEF80
850880
848480
448480
444300
844280
844280
844480
783F00
ENDCHAR
STARTCHAR o
ENCODING 111
SWIDTH 612 0
DWIDTH 20 0
BBX 19 24 0 -1
BITMAP
080000
17F700
2049C0
202180
204080
1F8180
117F80
210840
3D0F40
210840
220840
220440
220440
420440
7E07A0
420440
420540
44FEC0
432040
822060
462060
380FC0
27F000
180000
ENDCHAR
STARTCHAR p
ENCODING 112
SWIDTH 513 0
DWIDTH 16 0
BBX 16 23 1 0
BITMAP
1C00
6380
A060
6058
6047
5E81
4581
8472
FC6E
8482
4706
4488
4450
8420
E4C0
9D00
8600
8400
8400
8400
8400
8400
FC00
ENDCHAR
STARTCHAR q
ENCODING 113
SWIDTH 612 0
DWIDTH 20 0
BBX 19 28 0 -5
BITMAP
080000
17F700
2049C0
202180
204080
1F8180
117F80
210840
3D0F40
210840
220840
220440
220440
420440
7E07A0
420440
420540
44FEC0
432040
822060
462060
381FC0
27E800
190800
010800
010800
019800
006000
ENDCHAR
STARTCHAR r
ENCODING 114
SWIDTH 532 0
DWIDTH 17 0
BBX 16 24 1 -1
BITMAP
1C00
6300
A060
6050
604F
5C81
4701
44E1
FC3A
84C6
8702
46EC
4510
4610
8508
FD84
86B4
8444
4442
8421
8421
8411
C416
3808
ENDCHAR
STARTCHAR s
ENCODING 115
SWIDTH 442 0
DWIDTH 14 0
BBX 14 24 0 -1
BITMAP
0018
3FE4
5904
6504
4504
87F8
4200
2100
2100
1680
1880
0840
0420
0420
02D0
0310
0108
0708
7A84
8284
8248
80F0
5F00
2000
ENDCHAR
STARTCHAR t
ENCODING 116
SWIDTH 453 0
DWIDTH 15 0
BBX 15 23 0 0
BITMAP
4104
BFFC
8102
8102
8102
FFFC
0440
0440
0B40
0CC0
0840
0440
0440
0440
0840
0FC0
0840
0440
0440
0840
0840
0840
0780
ENDCHAR
STARTCHAR u
ENCODING 117
SWIDTH 583 0
DWIDTH 19 0
BBX 18 23 0 -1
BITMAP
3F1F80
211080
211080
211080
211080
221080
391680
251980
221080
220880
220880
220880
420880
7E0F40
420840
420E80
45F980
424180
824140
424140
381F40
27EF80
180000
ENDCHAR
STARTCHAR v
ENCODING 118
SWIDTH 506 0
DWIDTH 16 0
BBX 16 23 0 -1
BITMAP
3800
441E
8411
8411
4422
4422
4222
5E7A
6242
2244
2144
2144
1184
10F4
1F88
1088
0908
0910
0910
0A10
0910
0CE0
0200
ENDCHAR
STARTCHAR w
ENCODING 119
SWIDTH 735 0
DWIDTH 24 0
BBX 23 23 0 -1
BITMAP
180038
440046
843E42
844242
444244
446244
42A284
5EEDF4
62B184
229184
229188
219088
110908
11EF88
1F0978
111908
091510
0A1510
0A1610
0A1610
0A1210
09E330
060040
ENDCHAR
STARTCHAR x
ENCODING 120
SWIDTH 483 0
DWIDTH 15 0
BBX 15 22 0 0
BITMAP
1810
642C
4422
8442
4244
2184
2108
16C8
1A30
0A10
0C20
0860
0850
14F0
1288
2108
2184
4242
8442
8442
4426
3838
ENDCHAR
STARTCHAR y
ENCODING 121
SWIDTH 484 0
DWIDTH 16 0
BBX 17 22 -1 0
BITMAP
180E00
680980
441080
821080
421100
212100
12F200
144A00
084200
088400
048400
030800
010800
02C800
023000
021000
042000
042000
084000
084000
064000
018000
ENDCHAR
STARTCHAR z
ENCODING 122
SWIDTH 458 0
DWIDTH 15 0
BBX 15 22 0 0
BITMAP
3FF8
4104
4104
4106
2EFC
1108
0308
02D0
0250
0420
0420
0840
1880
1480
2280
2100
43F8
8304
8504
8504
6C78
3388
ENDCHAR
STARTCHAR braceleft
ENCODING 123
SWIDTH 473 0
DWIDTH 15 0
BBX 15 27 0 -2
BITMAP
0008
0034
0FC2
1082
1082
087C
0840
07C0
0420
0420
4220
BF90
8050
8060
8060
7F90
0220
0420
0F40
08C0
0840
1080
10FC
1082
1102
0FC4
003C
ENDCHAR
STARTCHAR bar
ENCODING 124
SWIDTH 263 0
DWIDTH 8 0
BBX 7 26 1 -2
BITMAP
7C
82
44
44
44
44
44
84
FC
84
84
44
44
44
84
F4
8C
84
84
84
84
84
84
84
CC
10
ENDCHAR
STARTCHAR braceright
ENCODING 125
SWIDTH 473 0
DWIDTH 15 0
BBX 15 27 0 -2
BITMAP
2000
5C00
83E0
8210
8210
7A20
0420
07A0
0440
0840
0884
13FA
1402
0C02
0C02
13FC
0840
0840
05E0
0620
0420
0210
7E10
8108
8110
45E0
7800
ENDCHAR
STARTCHAR asciitilde
ENCODING 126
SWIDTH 456 0
DWIDTH 15 0
BBX 13 8 1 8
BITMAP
1C70
2248
2688
4590
88A0
9460
9440
63C0
ENDCHAR
STARTCHAR nonbreakingspace
ENCODING 160
SWIDTH 200 0
DWIDTH 6 0
BBX 1 1 0 0
BITMAP
00
ENDCHAR
STARTCHAR exclamdown
ENCODING 161
SWIDTH 259 0
DWIDTH 8 0
BBX 6 22 1 0
BITMAP
78
44
44
44
78
00
38
C4
44
44
44
44
84
84
BC
84
84
84
84
84
84
FC
ENDCHAR
STARTCHAR cent
ENCODING 162
SWIDTH 480 0
DWIDTH 15 0
BBX 14 29 1 -4
BITMAP
0780
0840
0440
0440
0470
04C8
0708
3904
4084
C0B8
A1C0
A600
9800
A400
D400
8800
8800
8400
8780
84F0
F88C
2104
0E04
05C8
04B0
0440
0840
0840
0780
ENDCHAR
STARTCHAR sterling
ENCODING 163
SWIDTH 594 0
DWIDTH 19 0
BBX 17 22 1 0
BITMAP
038000
046000
0C1E00
0C0200
0C0200
0BC200
08B200
088C00
4F8000
B0F800
888800
888800
888800
98F800
4F4000
088000
08FF80
08A080
08A080
10A080
10CE80
0FF180
ENDCHAR
STARTCHAR currency
ENCODING 164
SWIDTH 640 0
DWIDTH 20 0
BBX 19 18 1 3
BITMAP
700180
88E240
853420
864820
C48440
2E8380
114300
1064C0
609440
411820
433840
24E480
3C2500
4C22C0
822420
854C20
888A40
707180
ENDCHAR
STARTCHAR yen
ENCODING 165
SWIDTH 575 0
DWIDTH 18 0
BBX 17 22 1 0
BITMAP
000C00
781300
881100
841080
842100
432200
234200
24B200
188C00
188400
090800
3FFC00
208200
408200
408200
221200
1DEC00
084000
184000
104000
088000
078000
ENDCHAR
STARTCHAR brokenbar
ENCODING 166
SWIDTH 258 0
DWIDTH 8 0
BBX 6 28 1 -3
BITMAP
78
84
84
44
44
FC
84
84
84
84
84
84
78
00
00
78
84
84
44
44
84
FC
84
84
84
84
84
7C
ENDCHAR
STARTCHAR section
ENCODING 167
SWIDTH 474 0
DWIDTH 15 0
BBX 13 24 1 -1
BITMAP
0030
7FC8
8108
8108
F108
8FF0
8280
8470
7478
2848
2788
4488
8510
8710
CAE0
B418
7408
0C08
7B98
8168
8108
8078
5F80
2000
ENDCHAR
STARTCHAR dieresis
ENCODING 168
SWIDTH 351 0
DWIDTH 11 0
BBX 11 5 0 24
BITMAP
79C0
8A20
8A20
4A20
79C0
ENDCHAR
STARTCHAR copyright
ENCODING 169
SWIDTH 719 0
DWIDTH 23 0
BBX 21 23 1 0
BITMAP
3FFFE0
408470
C08488
A68088
79FF88
480048
48FC88
890488
FB04F8
89FC88
894088
894088
894088
894488
FA7CF8
8BC488
88FC88
880088
8B8888
8D77E8
890428
710830
7FFFE0
ENDCHAR
STARTCHAR ordfeminine
ENCODING 170
SWIDTH 455 0
DWIDTH 15 0
BBX 15 22 0 0
BITMAP
0FE0
0A20
0C20
1210
1210
1110
2108
3978
2508
4288
5F88
6044
A044
BFC2
8446
7838
1000
2FF0
2010
2008
2010
1FF0
ENDCHAR
STARTCHAR guillemotleft
ENCODING 171
SWIDTH 689 0
DWIDTH 22 0
BBX 20 14 1 4
BITMAP
0780E0
088110
104610
609810
812060
862080
881100
F43A80
822440
419830
304410
088210
058120
0200C0
ENDCHAR
STARTCHAR logicalnot
ENCODING 172
SWIDTH 591 0
DWIDTH 19 0
BBX 17 12 1 1
BITMAP
FFFE00
808700
808980
809080
967080
618880
000880
000880
000880
001080
001080
000F00
ENDCHAR
STARTCHAR uni00AD
ENCODING 173
SWIDTH 465 0
DWIDTH 15 0
BBX 13 6 1 8
BITMAP
4210
B7E8
8108
8108
8208
FFF0
ENDCHAR
STARTCHAR registered
ENCODING 174
SWIDTH 719 0
DWIDTH 23 0
BBX 21 23 1 0
BITMAP
3FFFE0
408470
C08488
A68088
79FF88
480048
484088
89B088
F98EF8
89E288
895C88
894088
894088
894088
F940F8
894088
89C088
880088
8B8888
8D77E8
890428
710830
7FFFE0
ENDCHAR
STARTCHAR macron
ENCODING 175
SWIDTH 263 0
DWIDTH 8 0
BBX 8 4 0 24
BITMAP
FF
81
81
7F
ENDCHAR
STARTCHAR degree
ENCODING 176
SWIDTH 333 0
DWIDTH 11 0
BBX 10 9 0 12
BITMAP
1F00
2280
2480
4A40
8A40
7540
40C0
5E80
2180
ENDCHAR
STARTCHAR plusminus
ENCODING 177
SWIDTH 464 0
DWIDTH 15 0
BBX 13 21 1 -4
BITMAP
0F80
0840
0880
4880
9FF8
8108
8108
8208
BFE8
4890
0880
0880
0F80
0000
4000
BFF8
8108
8108
8208
9FE8
6010
ENDCHAR
STARTCHAR twosuperior
ENCODING 178
SWIDTH 324 0
DWIDTH 10 0
BBX 9 12 1 10
BITMAP
FE00
8100
8100
FD00
1300
2200
2400
4400
8F00
8880
F080
7F00
ENDCHAR
STARTCHAR threesuperior
ENCODING 179
SWIDTH 332 0
DWIDTH 11 0
BBX 9 13 1 9
BITMAP
FE00
8100
8180
FD00
3A80
2480
2480
3880
7880
8880
8700
9C00
6000
ENDCHAR
STARTCHAR acute
ENCODING 180
SWIDTH 202 0
DWIDTH 6 0
BBX 6 7 0 24
BITMAP
18
24
24
44
88
90
60
ENDCHAR
STARTCHAR mu
ENCODING 181
SWIDTH 582 0
DWIDTH 19 0
BBX 17 26 1 -4
BITMAP
3C1E00
422100
422100
422200
422200
442100
442100
443D00
622100
4A2100
441100
441100
441100
442500
441B00
441500
75FB00
8B0300
448300
448280
44BE80
47DB00
840400
840000
840000
780000
ENDCHAR
STARTCHAR paragraph
ENCODING 182
SWIDTH 556 0
DWIDTH 18 0
BBX 16 24 1 -1
BITMAP
0078
038C
0407
3C06
C20A
8272
81A2
8E22
F47E
8342
40A2
3162
0A22
0422
0242
017E
00C2
0042
0022
0042
0042
0042
0066
0008
ENDCHAR
STARTCHAR periodcentered
ENCODING 183
SWIDTH 215 0
DWIDTH 7 0
BBX 5 5 1 9
BITMAP
F8
88
88
88
70
ENDCHAR
STARTCHAR cedilla
ENCODING 184
SWIDTH 237 0
DWIDTH 8 0
BBX 8 10 0 -7
BITMAP
04
0B
0A
0A
0A
11
EF
82
9C
60
ENDCHAR
STARTCHAR onesuperior
ENCODING 185
SWIDTH 286 0
DWIDTH 9 0
BBX 8 12 0 10
BITMAP
0E
11
61
87
89
D9
29
09
09
09
09
0F
ENDCHAR
STARTCHAR ordmasculine
ENCODING 186
SWIDTH 476 0
DWIDTH 15 0
BBX 14 22 1 0
BITMAP
7FF0
8108
8118
81C8
8084
FF84
8888
8888
8888
8888
8FF8
8908
F108
8108
9FE8
6010
1000
2FE0
4010
4010
4010
3FE0
ENDCHAR
STARTCHAR guillemotright
ENCODING 187
SWIDTH 689 0
DWIDTH 22 0
BBX 20 14 1 4
BITMAP
700E00
881100
862080
819060
604C10
104210
088110
1DC2F0
224410
C19820
8210C0
841100
481A00
300400
ENDCHAR
STARTCHAR onequarter
ENCODING 188
SWIDTH 790 0
DWIDTH 25 0
BBX 24 22 1 0
BITMAP
0E0800
321600
431100
852200
892200
912400
692400
097C00
114400
114410
114828
0E4844
00884E
00E891
009912
00923E
009246
011346
011286
0111FA
01E011
00000E
ENDCHAR
STARTCHAR onehalf
ENCODING 189
SWIDTH 771 0
DWIDTH 25 0
BBX 23 22 1 0
BITMAP
0E0800
321600
431100
852200
892200
912400
692400
097C00
114400
114400
1149F8
0E4A04
008A04
00EAB4
00994C
009048
009088
011110
01121C
011222
01E142
0001FE
ENDCHAR
STARTCHAR threequarters
ENCODING 190
SWIDTH 817 0
DWIDTH 26 0
BBX 25 22 1 0
BITMAP
FE000000
810F0000
81888000
FD910000
1A910000
24920000
24920000
38BE0000
78A20000
88A20800
83241400
9C242200
60442700
00744880
004C8900
00491F00
00492300
0089A100
00894300
0088FE80
00F80880
00000700
ENDCHAR
STARTCHAR questiondown
ENCODING 191
SWIDTH 455 0
DWIDTH 15 0
BBX 13 23 1 0
BITMAP
00C0
0320
0220
0220
0220
0180
0000
03C0
0220
0220
0320
04A0
1860
2040
C080
F300
8E00
81E0
8418
E408
1C08
0708
00F0
ENDCHAR
STARTCHAR Agrave
ENCODING 192
SWIDTH 507 0
DWIDTH 16 0
BBX 17 30 0 0
BITMAP
070000
090000
088000
048000
028000
024000
018000
000000
0F8000
084000
087000
089000
089000
109000
1C9000
128800
11B800
11C800
218800
214600
225D00
3DE080
424080
424080
424F00
44F200
872100
842100
842100
781E00
ENDCHAR
STARTCHAR Aacute
ENCODING 193
SWIDTH 507 0
DWIDTH 16 0
BBX 17 30 0 0
BITMAP
003800
002400
004400
004800
009000
012000
00E000
000000
0F8000
084000
087000
089000
089000
109000
1C9000
128800
11B800
11C800
218800
214600
225D00
3DE080
424080
424080
424F00
44F200
872100
842100
842100
781E00
ENDCHAR
STARTCHAR Acircumflex
ENCODING 194
SWIDTH 507 0
DWIDTH 16 0
BBX 17 31 0 0
BITMAP
03C000
026000
046000
049000
099000
114800
0A4800
0E3000
000000
0F8000
084000
087000
089000
089000
109000
1C9000
128800
11B800
11C800
218800
214600
225D00
3DE080
424080
424080
424F00
44F200
872100
842100
842100
781E00
ENDCHAR
STARTCHAR Atilde
ENCODING 195
SWIDTH 507 0
DWIDTH 16 0
BBX 17 31 0 0
BITMAP
079C00
049200
08D200
116400
132400
251800
249800
18F000
000000
0F8000
084000
087000
089000
089000
109000
1C9000
128800
11B800
11C800
218800
214600
225D00
3DE080
424080
424080
424F00
44F200
872100
842100
842100
781E00
ENDCHAR
STARTCHAR Adieresis
ENCODING 196
SWIDTH 507 0
DWIDTH 16 0
BBX 17 29 0 0
BITMAP
0F3800
114400
114400
114800
1E3800
000000
000000
0F8000
084000
087000
089000
089000
109000
1C9000
128800
11B800
11C800
218800
214600
225D00
3DE080
424080
424080
424F00
44F200
872100
842100
842100
781E00
ENDCHAR
STARTCHAR Aring
ENCODING 197
SWIDTH 507 0
DWIDTH 16 0
BBX 17 32 0 0
BITMAP
03E000
045000
049000
08C800
114800
0FE800
083800
080800
07F000
000000
0F8000
084000
087000
089000
089000
109000
1C9000
128800
11B800
11C800
218800
214600
225D00
3DE080
424080
424080
424F00
44F200
872100
842100
842100
781E00
ENDCHAR
STARTCHAR AE
ENCODING 198
SWIDTH 797 0
DWIDTH 26 0
BBX 26 22 -1 0
BITMAP
0027FFC0
00584840
00444840
00824840
008467C0
01085800
030B4000
02DCC000
02387E00
04284200
04284100
08484100
08787200
168FCE00
11884000
20884000
21F87F80
42085040
82085040
44085040
64086E40
18079180
ENDCHAR
STARTCHAR Ccedilla
ENCODING 199
SWIDTH 515 0
DWIDTH 16 0
BBX 16 30 0 -7
BITMAP
0800
17F3
204D
2021
2041
1F81
117F
2100
3D00
2100
2200
2200
2200
4200
7E00
4200
4202
45FD
4241
8241
4641
381F
27F0
1890
0090
0090
07F0
0820
04C0
0700
ENDCHAR
STARTCHAR Egrave
ENCODING 200
SWIDTH 490 0
DWIDTH 16 0
BBX 15 31 1 0
BITMAP
0700
1900
0900
0900
0480
0480
0300
0000
1000
EFFC
4482
4482
4482
467C
4580
B400
CC00
87E0
4420
4410
4410
8720
FCE0
8400
8400
47F8
4484
8484
8504
86E4
7918
ENDCHAR
STARTCHAR Eacute
ENCODING 201
SWIDTH 490 0
DWIDTH 16 0
BBX 15 31 1 0
BITMAP
00E0
0090
0110
0120
0240
0480
0380
0000
1000
EFFC
4482
4482
4482
467C
4580
B400
CC00
87E0
4420
4410
4410
8720
FCE0
8400
8400
47F8
4484
8484
8504
86E4
7918
ENDCHAR
STARTCHAR Ecircumflex
ENCODING 202
SWIDTH 490 0
DWIDTH 16 0
BBX 15 31 1 0
BITMAP
0780
0480
08C0
0920
1320
2290
2490
1C60
1000
EFFC
4482
4482
4482
467C
4580
B400
CC00
87E0
4420
4410
4410
8720
FCE0
8400
8400
47F8
4484
8484
8504
86E4
7918
ENDCHAR
STARTCHAR Edieresis
ENCODING 203
SWIDTH 490 0
DWIDTH 16 0
BBX 15 29 1 0
BITMAP
1CF0
2288
2290
2290
3CF0
0000
1000
EFFC
4482
4482
4482
467C
4580
B400
CC00
87E0
4420
4410
4410
8720
FCE0
8400
8400
47F8
4484
8484
8504
86E4
7918
ENDCHAR
STARTCHAR Igrave
ENCODING 204
SWIDTH 266 0
DWIDTH 9 0
BBX 8 31 0 0
BITMAP
70
90
88
48
48
24
18
00
08
77
22
22
22
22
22
5A
66
42
22
22
22
42
7E
42
42
22
42
42
42
42
3C
ENDCHAR
STARTCHAR Iacute
ENCODING 205
SWIDTH 266 0
DWIDTH 9 0
BBX 9 31 1 0
BITMAP
0600
0500
0880
1100
1200
2400
1800
0000
1000
EE00
4400
4400
4400
4400
4400
B400
CC00
8400
4400
4400
4400
8400
FC00
8400
8400
4400
8400
8400
8400
8400
7800
ENDCHAR
STARTCHAR Icircumflex
ENCODING 206
SWIDTH 266 0
DWIDTH 9 0
BBX 10 32 0 0
BITMAP
1E00
2200
2200
4500
8880
9440
9240
6380
0000
0800
7700
2200
2200
2200
2200
2200
5A00
6600
4200
2200
2200
2200
4200
7E00
4200
4200
2200
4200
4200
4200
4200
3C00
ENDCHAR
STARTCHAR Idieresis
ENCODING 207
SWIDTH 266 0
DWIDTH 9 0
BBX 11 29 -1 0
BITMAP
79C0
8A20
8A20
8A40
71C0
0000
0400
3B80
1100
1100
1100
1100
1100
2D00
3300
2100
1100
1100
1100
2100
3F00
2100
2100
1100
2100
2100
2100
2100
1E00
ENDCHAR
STARTCHAR Eth
ENCODING 208
SWIDTH 669 0
DWIDTH 21 0
BBX 23 24 -1 -1
BITMAP
001C00
00E400
014200
00C100
00E0C0
009060
0108A0
01ED10
011A08
7FC906
402882
802844
80286A
5F2892
21FB04
010D08
010C90
0108A0
010840
010880
010900
010A00
00F400
000C00
ENDCHAR
STARTCHAR Ntilde
ENCODING 209
SWIDTH 598 0
DWIDTH 19 0
BBX 17 31 1 0
BITMAP
03CE00
024900
046900
089200
099200
128C00
124C00
0C7800
100200
EE1D80
451080
451080
451080
449080
449080
B45E80
CF5180
845080
443080
463080
461080
860880
FDEF80
850880
848480
448480
444300
844280
844280
844480
783F00
ENDCHAR
STARTCHAR Ograve
ENCODING 210
SWIDTH 612 0
DWIDTH 20 0
BBX 19 32 0 -1
BITMAP
00E000
012000
032000
011000
009000
005000
006000
000000
080000
17F700
2049C0
202180
204080
1F8180
117F80
210840
3D0F40
210840
220840
220440
220440
420440
7E07A0
420440
420540
44FEC0
432040
822060
462060
380FC0
27F000
180000
ENDCHAR
STARTCHAR Oacute
ENCODING 211
SWIDTH 612 0
DWIDTH 20 0
BBX 19 32 0 -1
BITMAP
000C00
001200
001200
002400
004400
004800
003000
000000
080000
17F700
2049C0
202180
204080
1F8180
117F80
210840
3D0F40
210840
220840
220440
220440
420440
7E07A0
420440
420540
44FEC0
432040
822060
462060
380FC0
27F000
180000
ENDCHAR
STARTCHAR Ocircumflex
ENCODING 212
SWIDTH 612 0
DWIDTH 20 0
BBX 19 32 0 -1
BITMAP
00F000
009800
011800
012400
026400
045200
029200
038C00
080000
17F700
2049C0
202180
204080
1F8180
117F80
210840
3D0F40
210840
220840
220440
220440
420440
7E07A0
420440
420540
44FEC0
432040
822060
462060
380FC0
27F000
180000
ENDCHAR
STARTCHAR Otilde
ENCODING 213
SWIDTH 612 0
DWIDTH 20 0
BBX 19 32 0 -1
BITMAP
00E380
013440
023480
024880
044900
08A600
052600
031E00
080000
17F700
2049C0
202180
204080
1F8180
117F80
210840
3D0F40
210840
220840
220440
220440
420440
7E07A0
420440
420540
44FEC0
432040
822060
462060
380FC0
27F000
180000
ENDCHAR
STARTCHAR Odieresis
ENCODING 214
SWIDTH 612 0
DWIDTH 20 0
BBX 19 30 0 -1
BITMAP
079C00
08A200
04A200
04A200
079C00
000000
080000
17F700
2049C0
202180
204080
1F8180
117F80
210840
3D0F40
210840
220840
220440
220440
420440
7E07A0
420440
420540
44FEC0
432040
822060
462060
380FC0
27F000
180000
ENDCHAR
STARTCHAR multiply
ENCODING 215
SWIDTH 421 0
DWIDTH 14 0
BBX 12 11 1 5
BITMAP
79C0
8920
8610
8310
C160
2280
7440
8830
8410
8A20
71C0
ENDCHAR
STARTCHAR Oslash
ENCODING 216
SWIDTH 612 0
DWIDTH 20 0
BBX 19 24 0 -1
BITMAP
080000
17F780
204CC0
202840
204840
1F9080
117180
212140
3D5B40
214A40
228440
228840
230C40
421440
7F17A0
44A440
446540
487EC0
48A040
90A060
612060
210FC0
23F000
1E0000
ENDCHAR
STARTCHAR Ugrave
ENCODING 217
SWIDTH 583 0
DWIDTH 19 0
BBX 18 31 0 -1
BITMAP
01C000
064000
024000
024000
012000
012000
00C000
000000
3F1F80
211080
211080
211080
211080
221080
391680
251980
221080
220880
220880
220880
420880
7E0F40
420840
420E80
45F980
424180
824140
424140
381F40
27EF80
180000
ENDCHAR
STARTCHAR Uacute
ENCODING 218
SWIDTH 583 0
DWIDTH 19 0
BBX 18 32 0 -1
BITMAP
001800
002400
004400
004800
009000
00A000
00E000
000000
000000
3F1F80
211080
211080
211080
211080
221080
391680
251980
221080
220880
220880
220880
420880
7E0F40
420840
420E80
45F980
424180
824140
424140
381F40
27EF80
180000
ENDCHAR
STARTCHAR Ucircumflex
ENCODING 219
SWIDTH 583 0
DWIDTH 19 0
BBX 18 32 0 -1
BITMAP
01E000
012000
023000
024800
04C800
08C400
092400
073800
000000
3F1F80
211080
211080
211080
211080
221080
391680
251980
221080
220880
220880
220880
420880
7E0F40
420840
420E80
45F980
424180
824140
424140
381F40
27EF80
180000
ENDCHAR
STARTCHAR Udieresis
ENCODING 220
SWIDTH 583 0
DWIDTH 19 0
BBX 18 30 0 -1
BITMAP
073C00
08A200
08A400
08A400
0F3C00
000000
000000
3F1F80
211080
211080
211080
211080
221080
391680
251980
221080
220880
220880
220880
420880
7E0F40
420840
420E80
45F980
424180
824140
424140
381F40
27EF80
180000
ENDCHAR
STARTCHAR Yacute
ENCODING 221
SWIDTH 484 0
DWIDTH 16 0
BBX 17 29 -1 0
BITMAP
003000
002800
004400
008800
009000
012000
00C000
180E00
680980
441080
821080
421100
212100
12F200
144A00
084200
088400
048400
030800
010800
02C800
023000
021000
042000
042000
084000
084000
064000
018000
ENDCHAR
STARTCHAR Thorn
ENCODING 222
SWIDTH 520 0
DWIDTH 17 0
BBX 16 22 1 0
BITMAP
7C00
8200
5C00
6600
61C0
6070
604E
FC41
8781
44E1
443A
4446
4582
E78C
9C90
8460
4460
4480
8700
8400
8400
FC00
ENDCHAR
STARTCHAR germandbls
ENCODING 223
SWIDTH 884 0
DWIDTH 28 0
BBX 28 24 0 -1
BITMAP
00180060
3FE4FF90
59052410
6505D410
45051410
87FA0FE0
42010800
21008400
21004200
16805A00
18806200
08402100
04201080
04201040
02D00B40
03100C40
01080420
07081C30
7A85EA10
82860A10
824A0920
80F203C0
5F017C00
20008000
ENDCHAR
STARTCHAR agrave
ENCODING 224
SWIDTH 507 0
DWIDTH 16 0
BBX 17 30 0 0
BITMAP
070000
090000
088000
048000
028000
024000
018000
000000
0F8000
084000
087000
089000
089000
109000
1C9000
128800
11B800
11C800
218800
214600
225D00
3DE080
424080
424080
424F00
44F200
872100
842100
842100
781E00
ENDCHAR
STARTCHAR aacute
ENCODING 225
SWIDTH 507 0
DWIDTH 16 0
BBX 17 30 0 0
BITMAP
003800
002400
004400
004800
009000
012000
00E000
000000
0F8000
084000
087000
089000
089000
109000
1C9000
128800
11B800
11C800
218800
214600
225D00
3DE080
424080
424080
424F00
44F200
872100
842100
842100
781E00
ENDCHAR
STARTCHAR acircumflex
ENCODING 226
SWIDTH 507 0
DWIDTH 16 0
BBX 17 31 0 0
BITMAP
03C000
026000
046000
049000
099000
114800
0A4800
0E3000
000000
0F8000
084000
087000
089000
089000
109000
1C9000
128800
11B800
11C800
218800
214600
225D00
3DE080
424080
424080
424F00
44F200
872100
842100
842100
781E00
ENDCHAR
STARTCHAR atilde
ENCODING 227
SWIDTH 507 0
DWIDTH 16 0
BBX 17 31 0 0
BITMAP
079C00
049200
08D200
116400
132400
251800
249800
18F000
000000
0F8000
084000
087000
089000
089000
109000
1C9000
128800
11B800
11C800
218800
214600
225D00
3DE080
424080
424080
424F00
44F200
872100
842100
842100
781E00
ENDCHAR
STARTCHAR adieresis
ENCODING 228
SWIDTH 507 0
DWIDTH 16 0
BBX 17 29 0 0
BITMAP
0F3800
114400
114400
114800
1E3800
000000
000000
0F8000
084000
087000
089000
089000
109000
1C9000
128800
11B800
11C800
218800
214600
225D00
3DE080
424080
424080
424F00
44F200
872100
842100
842100
781E00
ENDCHAR
STARTCHAR aring
ENCODING 229
SWIDTH 507 0
DWIDTH 16 0
BBX 17 32 0 0
BITMAP
03E000
045000
049000
08C800
114800
0FE800
083800
080800
07F000
000000
0F8000
084000
087000
089000
089000
109000
1C9000
128800
11B800
11C800
218800
214600
225D00
3DE080
424080
424080
424F00
44F200
872100
842100
842100
781E00
ENDCHAR
STARTCHAR ae
ENCODING 230
SWIDTH 797 0
DWIDTH 26 0
BBX 26 22 -1 0
BITMAP
0027FFC0
00584840
00444840
00824840
008467C0
01085800
030B4000
02DCC000
02387E00
04284200
04284100
08484100
08787200
168FCE00
11884000
20884000
21F87F80
42085040
82085040
44085040
64086E40
18079180
ENDCHAR
STARTCHAR ccedilla
ENCODING 231
SWIDTH 515 0
DWIDTH 16 0
BBX 16 30 0 -7
BITMAP
0800
17F3
204D
2021
2041
1F81
117F
2100
3D00
2100
2200
2200
2200
4200
7E00
4200
4202
45FD
4241
8241
4641
381F
27F0
1890
0090
0090
07F0
0820
04C0
0700
ENDCHAR
STARTCHAR egrave
ENCODING 232
SWIDTH 490 0
DWIDTH 16 0
BBX 15 31 1 0
BITMAP
0700
1900
0900
0900
0480
0480
0300
0000
1000
EFFC
4482
4482
4482
467C
4580
B400
CC00
87E0
4420
4410
4410
8720
FCE0
8400
8400
47F8
4484
8484
8504
86E4
7918
ENDCHAR
STARTCHAR eacute
ENCODING 233
SWIDTH 490 0
DWIDTH 16 0
BBX 15 31 1 0
BITMAP
00E0
0090
0110
0120
0240
0480
0380
0000
1000
EFFC
4482
4482
4482
467C
4580
B400
CC00
87E0
4420
4410
4410
8720
FCE0
8400
8400
47F8
4484
8484
8504
86E4
7918
ENDCHAR
STARTCHAR ecircumflex
ENCODING 234
SWIDTH 490 0
DWIDTH 16 0
BBX 15 31 1 0
BITMAP
0780
0480
08C0
0920
1320
2290
2490
1C60
1000
EFFC
4482
4482
4482
467C
4580
B400
CC00
87E0
4420
4410
4410
8720
FCE0
8400
8400
47F8
4484
8484
8504
86E4
7918
ENDCHAR
STARTCHAR edieresis
ENCODING 235
SWIDTH 490 0
DWIDTH 16 0
BBX 15 29 1 0
BITMAP
1CF0
2288
2290
2290
3CF0
0000
1000
EFFC
4482
4482
4482
467C
4580
B400
CC00
87E0
4420
4410
4410
8720
FCE0
8400
8400
47F8
4484
8484
8504
86E4
7918
ENDCHAR
STARTCHAR igrave
ENCODING 236
SWIDTH 266 0
DWIDTH 9 0
BBX 8 31 0 0
BITMAP
70
90
88
48
48
24
18
00
08
77
22
22
22
22
22
5A
66
42
22
22
22
42
7E
42
42
22
42
42
42
42
3C
ENDCHAR
STARTCHAR iacute
ENCODING 237
SWIDTH 266 0
DWIDTH 9 0
BBX 9 31 1 0
BITMAP
0600
0500
0880
1100
1200
2400
1800
0000
1000
EE00
4400
4400
4400
4400
4400
B400
CC00
8400
4400
4400
4400
8400
FC00
8400
8400
4400
8400
8400
8400
8400
7800
ENDCHAR
STARTCHAR icircumflex
ENCODING 238
SWIDTH 266 0
DWIDTH 9 0
BBX 10 32 0 0
BITMAP
1E00
2200
2200
4500
8880
9440
9240
6380
0000
0800
7700
2200
2200
2200
2200
2200
5A00
6600
4200
2200
2200
2200
4200
7E00
4200
4200
2200
4200
4200
4200
4200
3C00
ENDCHAR
STARTCHAR idieresis
ENCODING 239
SWIDTH 266 0
DWIDTH 9 0
BBX 11 29 -1 0
BITMAP
79C0
8A20
8A20
8A40
71C0
0000
0400
3B80
1100
1100
1100
1100
1100
2D00
3300
2100
1100
1100
1100
2100
3F00
2100
2100
1100
2100
2100
2100
2100
1E00
ENDCHAR
STARTCHAR eth
ENCODING 240
SWIDTH 669 0
DWIDTH 21 0
BBX 23 24 -1 -1
BITMAP
001C00
00E400
014200
00C100
00E0C0
009060
0108A0
01ED10
011A08
7FC906
402882
802844
80286A
5F2892
21FB04
010D08
010C90
0108A0
010840
010880
010900
010A00
00F400
000C00
ENDCHAR
STARTCHAR ntilde
ENCODING 241
SWIDTH 598 0
DWIDTH 19 0
BBX 17 31 1 0
BITMAP
03CE00
024900
046900
089200
099200
128C00
124C00
0C7800
100200
EE1D80
451080
451080
451080
449080
449080
B45E80
CF5180
845080
443080
463080
461080
860880
FDEF80
850880
848480
448480
444300
844280
844280
844480
783F00
ENDCHAR
STARTCHAR ograve
ENCODING 242
SWIDTH 612 0
DWIDTH 20 0
BBX 19 32 0 -1
BITMAP
00E000
012000
032000
011000
009000
005000
006000
000000
080000
17F700
2049C0
202180
204080
1F8180
117F80
210840
3D0F40
210840
220840
220440
220440
420440
7E07A0
420440
420540
44FEC0
432040
822060
462060
380FC0
27F000
180000
ENDCHAR
STARTCHAR oacute
ENCODING 243
SWIDTH 612 0
DWIDTH 20 0
BBX 19 32 0 -1
BITMAP
000C00
001200
001200
002400
004400
004800
003000
000000
080000
17F700
2049C0
202180
204080
1F8180
117F80
210840
3D0F40
210840
220840
220440
220440
420440
7E07A0
420440
420540
44FEC0
432040
822060
462060
380FC0
27F000
180000
ENDCHAR
STARTCHAR ocircumflex
ENCODING 244
SWIDTH 612 0
DWIDTH 20 0
BBX 19 32 0 -1
BITMAP
00F000
009800
011800
012400
026400
045200
029200
038C00
080000
17F700
2049C0
202180
204080
1F8180
117F80
210840
3D0F40
210840
220840
220440
220440
420440
7E07A0
420440
420540
44FEC0
432040
822060
462060
380FC0
27F000
180000
ENDCHAR
STARTCHAR otilde
ENCODING 245
SWIDTH 612 0
DWIDTH 20 0
BBX 19 32 0 -1
BITMAP
00E380
013440
023480
024880
044900
08A600
052600
031E00
080000
17F700
2049C0
202180
204080
1F8180
117F80
210840
3D0F40
210840
220840
220440
220440
420440
7E07A0
420440
420540
44FEC0
432040
822060
462060
380FC0
27F000
180000
ENDCHAR
STARTCHAR odieresis
ENCODING 246
SWIDTH 612 0
DWIDTH 20 0
BBX 19 30 0 -1
BITMAP
079C00
08A200
04A200
04A200
079C00
000000
080000
17F700
2049C0
202180
204080
1F8180
117F80
210840
3D0F40
210840
220840
220440
220440
420440
7E07A0
420440
420540
44FEC0
432040
822060
462060
380FC0
27F000
180000
ENDCHAR
STARTCHAR divide
ENCODING 247
SWIDTH 457 0
DWIDTH 15 0
BBX 13 18 1 2
BITMAP
0300
0880
0880
0880
0980
0600
4210
B7E8
8208
8108
8208
BFF0
4000
0700
0880
0880
0880
0F80
ENDCHAR
STARTCHAR oslash
ENCODING 248
SWIDTH 612 0
DWIDTH 20 0
BBX 19 24 0 -1
BITMAP
080000
17F780
204CC0
202840
204840
1F9080
117180
212140
3D5B40
214A40
228440
228840
230C40
421440
7F17A0
44A440
446540
487EC0
48A040
90A060
612060
210FC0
23F000
1E0000
ENDCHAR
STARTCHAR ugrave
ENCODING 249
SWIDTH 583 0
DWIDTH 19 0
BBX 18 31 0 -1
BITMAP
01C000
064000
024000
024000
012000
012000
00C000
000000
3F1F80
211080
211080
211080
211080
221080
391680
251980
221080
220880
220880
220880
420880
7E0F40
420840
420E80
45F980
424180
824140
424140
381F40
27EF80
180000
ENDCHAR
STARTCHAR uacute
ENCODING 250
SWIDTH 583 0
DWIDTH 19 0
BBX 18 32 0 -1
BITMAP
001800
002400
004400
004800
009000
00A000
00E000
000000
000000
3F1F80
211080
211080
211080
211080
221080
391680
251980
221080
220880
220880
220880
420880
7E0F40
420840
420E80
45F980
424180
824140
424140
381F40
27EF80
180000
ENDCHAR
STARTCHAR ucircumflex
ENCODING 251
SWIDTH 583 0
DWIDTH 19 0
BBX 18 32 0 -1
BITMAP
01E000
012000
023000
024800
04C800
08C400
092400
073800
000000
3F1F80
211080
211080
211080
211080
221080
391680
251980
221080
220880
220880
220880
420880
7E0F40
420840
420E80
45F980
424180
824140
424140
381F40
27EF80
180000
ENDCHAR
STARTCHAR udieresis
ENCODING 252
SWIDTH 583 0
DWIDTH 19 0
BBX 18 30 0 -1
BITMAP
073C00
08A200
08A400
08A400
0F3C00
000000
000000
3F1F80
211080
211080
211080
211080
221080
391680
251980
221080
220880
220880
220880
420880
7E0F40
420840
420E80
45F980
424180
824140
424140
381F40
27EF80
180000
ENDCHAR
STARTCHAR yacute
ENCODING 253
SWIDTH 484 0
DWIDTH 16 0
BBX 17 29 -1 0
BITMAP
003000
002800
004400
008800
009000
012000
00C000
180E00
680980
441080
821080
421100
212100
12F200
144A00
084200
088400
048400
030800
010800
02C800
023000
021000
042000
042000
084000
084000
064000
018000
ENDCHAR
STARTCHAR thorn
ENCODING 254
SWIDTH 520 0
DWIDTH 17 0
BBX 16 22 1 0
BITMAP
7C00
8200
5C00
6600
61C0
6070
604E
FC41
8781
44E1
443A
4446
4582
E78C
9C90
8460
4460
4480
8700
8400
8400
FC00
ENDCHAR
STARTCHAR ydieresis
ENCODING 255
SWIDTH 484 0
DWIDTH 16 0
BBX 17 28 -1 0
BITMAP
0FB800
114400
094400
094400
0F3C00
000000
180E00
680980
441080
821080
421100
212100
12F200
144A00
084200
088400
048400
030800
010800
02C800
023000
021000
042000
042000
084000
084000
064000
018000
ENDCHAR
STARTCHAR Amacron
ENCODING 256
SWIDTH 507 0
DWIDTH 16 0
BBX 17 27 0 0
BITMAP
0BF000
081000
081000
07F000
000000
0F8000
084000
087000
089000
089000
109000
1C9000
128800
11B800
11C800
218800
214600
225D00
3DE080
424080
424080
424F00
44F200
872100
842100
842100
781E00
ENDCHAR
STARTCHAR amacron
ENCODING 257
SWIDTH 507 0
DWIDTH 16 0
BBX 17 27 0 0
BITMAP
0BF000
081000
081000
07F000
000000
0F8000
084000
087000
089000
089000
109000
1C9000
128800
11B800
11C800
218800
214600
225D00
3DE080
424080
424080
424F00
44F200
872100
842100
842100
781E00
ENDCHAR
STARTCHAR Abreve
ENCODING 258
SWIDTH 507 0
DWIDTH 16 0
BBX 17 31 0 0
BITMAP
0C3000
124800
124800
124800
0BF000
091000
0E1000
07E000
000000
0F8000
084000
087000
089000
089000
109000
1C9000
128800
11B800
11C800
218800
214600
225D00
3DE080
424080
424080
424F00
44F200
872100
842100
842100
781E00
ENDCHAR
STARTCHAR abreve
ENCODING 259
SWIDTH 507 0
DWIDTH 16 0
BBX 17 31 0 0
BITMAP
0C3000
124800
124800
124800
0BF000
091000
0E1000
07E000
000000
0F8000
084000
087000
089000
089000
109000
1C9000
128800
11B800
11C800
218800
214600
225D00
3DE080
424080
424080
424F00
44F200
872100
842100
842100
781E00
ENDCHAR
STARTCHAR Aogonek
ENCODING 260
SWIDTH 507 0
DWIDTH 16 0
BBX 17 29 0 -7
BITMAP
0F8000
084000
087000
089000
089000
109000
1C9000
128800
11B800
11C800
218800
214600
225D00
3DE080
424080
424080
424F00
44F200
872100
842100
842100
781E00
001200
002400
002600
001980
000880
000480
000300
ENDCHAR
STARTCHAR aogonek
ENCODING 261
SWIDTH 507 0
DWIDTH 16 0
BBX 17 29 0 -7
BITMAP
0F8000
084000
087000
089000
089000
109000
1C9000
128800
11B800
11C800
218800
214600
225D00
3DE080
424080
424080
424F00
44F200
872100
842100
842100
781E00
001200
002400
002600
001980
000880
000480
000300
ENDCHAR
STARTCHAR Cacute
ENCODING 262
SWIDTH 515 0
DWIDTH 16 0
BBX 16 31 0 -1
BITMAP
0018
0024
0024
004C
0088
0090
0060
0800
17F3
204D
2021
2041
1F81
117F
2100
3D00
2100
2200
2200
2200
4200
7E00
4200
4202
45FD
4241
8241
4641
381F
27E0
1800
ENDCHAR
STARTCHAR cacute
ENCODING 263
SWIDTH 515 0
DWIDTH 16 0
BBX 16 31 0 -1
BITMAP
0018
0024
0024
004C
0088
0090
0060
0800
17F3
204D
2021
2041
1F81
117F
2100
3D00
2100
2200
2200
2200
4200
7E00
4200
4202
45FD
4241
8241
4641
381F
27E0
1800
ENDCHAR
STARTCHAR Ccircumflex
ENCODING 264
SWIDTH 515 0
DWIDTH 16 0
BBX 16 32 0 -1
BITMAP
00F0
0090
0118
0128
0264
0462
0492
031C
0800
17F3
204D
2021
2041
1F81
117F
2100
3D00
2100
2200
2200
2200
4200
7E00
4200
4202
45FD
4241
8241
4641
381F
27E0
1800
ENDCHAR
STARTCHAR ccircumflex
ENCODING 265
SWIDTH 515 0
DWIDTH 16 0
BBX 16 32 0 -1
BITMAP
00F0
0090
0118
0128
0264
0462
0492
031C
0800
17F3
204D
2021
2041
1F81
117F
2100
3D00
2100
2200
2200
2200
4200
7E00
4200
4202
45FD
4241
8241
4641
381F
27E0
1800
ENDCHAR
STARTCHAR Cdotaccent
ENCODING 266
SWIDTH 515 0
DWIDTH 16 0
BBX 16 29 0 -1
BITMAP
00F0
0110
0090
0090
00F0
0800
17F3
204D
2021
2041
1F81
117F
2100
3D00
2100
2200
2200
2200
4200
7E00
4200
4202
45FD
4241
8241
4641
381F
27E0
1800
ENDCHAR
STARTCHAR cdotaccent
ENCODING 267
SWIDTH 515 0
DWIDTH 16 0
BBX 16 29 0 -1
BITMAP
00F0
0110
0090
0090
00F0
0800
17F3
204D
2021
2041
1F81
117F
2100
3D00
2100
2200
2200
2200
4200
7E00
4200
4202
45FD
4241
8241
4641
381F
27E0
1800
ENDCHAR
STARTCHAR Ccaron
ENCODING 268
SWIDTH 515 0
DWIDTH 16 0
BBX 16 32 0 -1
BITMAP
079C
0492
0462
0244
0128
0110
0130
00E0
0800
17F3
204D
2021
2041
1F81
117F
2100
3D00
2100
2200
2200
2200
4200
7E00
4200
4202
45FD
4241
8241
4641
381F
27E0
1800
ENDCHAR
STARTCHAR ccaron
ENCODING 269
SWIDTH 515 0
DWIDTH 16 0
BBX 16 32 0 -1
BITMAP
079C
0492
0462
0244
0128
0110
0130
00E0
0800
17F3
204D
2021
2041
1F81
117F
2100
3D00
2100
2200
2200
2200
4200
7E00
4200
4202
45FD
4241
8241
4641
381F
27E0
1800
ENDCHAR
STARTCHAR Dcaron
ENCODING 270
SWIDTH 520 0
DWIDTH 17 0
BBX 16 33 1 -1
BITMAP
1C70
2290
1310
1120
0940
08C0
0480
0380
0000
0E00
F100
6180
60C0
5020
4830
4430
B6C8
CD06
8481
4461
4422
4437
8449
FD82
8784
8648
4430
4420
8440
8480
8500
7A00
0600
ENDCHAR
STARTCHAR dcaron
ENCODING 271
SWIDTH 520 0
DWIDTH 17 0
BBX 16 33 1 -1
BITMAP
1C70
2290
1310
1120
0940
08C0
0480
0380
0000
0E00
F100
6180
60C0
5020
4830
4430
B6C8
CD06
8481
4461
4422
4437
8449
FD82
8784
8648
4430
4420
8440
8480
8500
7A00
0600
ENDCHAR
STARTCHAR Dcroat
ENCODING 272
SWIDTH 669 0
DWIDTH 21 0
BBX 23 24 -1 -1
BITMAP
001C00
00E400
014200
00C100
00E0C0
009060
0108A0
01ED10
011A08
7FC906
402882
802844
80286A
5F2892
21FB04
010D08
010C90
0108A0
010840
010880
010900
010A00
00F400
000C00
ENDCHAR
STARTCHAR dcroat
ENCODING 273
SWIDTH 669 0
DWIDTH 21 0
BBX 23 24 -1 -1
BITMAP
001C00
00E400
014200
00C100
00E0C0
009060
0108A0
01ED10
011A08
7FC906
402882
802844
80286A
5F2892
21FB04
010D08
010C90
0108A0
010840
010880
010900
010A00
00F400
000C00
ENDCHAR
STARTCHAR Emacron
ENCODING 274
SWIDTH 490 0
DWIDTH 16 0
BBX 15 28 1 0
BITMAP
1FE0
1020
1020
1FE0
0000
1000
EFFC
4482
4482
4482
467C
4580
B400
CC00
87E0
4420
4410
4410
8720
FCE0
8400
8400
47F8
4484
8484
8504
86E4
7918
ENDCHAR
STARTCHAR emacron
ENCODING 275
SWIDTH 490 0
DWIDTH 16 0
BBX 15 28 1 0
BITMAP
1FE0
1020
1020
1FE0
0000
1000
EFFC
4482
4482
4482
467C
4580
B400
CC00
87E0
4420
4410
4410
8720
FCE0
8400
8400
47F8
4484
8484
8504
86E4
7918
ENDCHAR
STARTCHAR Ebreve
ENCODING 276
SWIDTH 490 0
DWIDTH 16 0
BBX 15 31 1 0
BITMAP
0C20
3458
2448
1290
13F0
1230
1C20
07C0
1000
EFFC
4482
4482
4482
467C
4580
B400
CC00
87E0
4420
4410
4410
8720
FCE0
8400
8400
47F8
4484
8484
8504
86E4
7918
ENDCHAR
STARTCHAR ebreve
ENCODING 277
SWIDTH 490 0
DWIDTH 16 0
BBX 15 31 1 0
BITMAP
0C20
3458
2448
1290
13F0
1230
1C20
07C0
1000
EFFC
4482
4482
4482
467C
4580
B400
CC00
87E0
4420
4410
4410
8720
FCE0
8400
8400
47F8
4484
8484
8504
86E4
7918
ENDCHAR
STARTCHAR Edotaccent
ENCODING 278
SWIDTH 490 0
DWIDTH 16 0
BBX 15 29 1 0
BITMAP
07C0
0880
0480
0480
0780
0000
1000
EFFC
4482
4482
4482
467C
4580
B400
CC00
87E0
4420
4410
4410
8720
FCE0
8400
8400
47F8
4484
8484
8504
86E4
7918
ENDCHAR
STARTCHAR edotaccent
ENCODING 279
SWIDTH 490 0
DWIDTH 16 0
BBX 15 29 1 0
BITMAP
07C0
0880
0480
0480
0780
0000
1000
EFFC
4482
4482
4482
467C
4580
B400
CC00
87E0
4420
4410
4410
8720
FCE0
8400
8400
47F8
4484
8484
8504
86E4
7918
ENDCHAR
STARTCHAR Eogonek
ENCODING 280
SWIDTH 490 0
DWIDTH 16 0
BBX 15 29 1 -7
BITMAP
FFFC
4482
4482
4482
467C
4580
B400
CC00
87E0
4420
4410
4410
8720
FCE0
8400
8400
47F8
4484
8484
8504
8664
7998
0090
0120
0138
00C4
0044
0034
0018
ENDCHAR
STARTCHAR eogonek
ENCODING 281
SWIDTH 490 0
DWIDTH 16 0
BBX 15 29 1 -7
BITMAP
FFFC
4482
4482
4482
467C
4580
B400
CC00
87E0
4420
4410
4410
8720
FCE0
8400
8400
47F8
4484
8484
8504
8664
7998
0090
0120
0138
00C4
0044
0034
0018
ENDCHAR
STARTCHAR Ecaron
ENCODING 282
SWIDTH 490 0
DWIDTH 16 0
BBX 15 31 1 0
BITMAP
1C70
1288
1290
0910
08A0
04C0
04C0
0380
1000
EFFC
4482
4482
4482
467C
4580
B400
CC00
87E0
4420
4410
4410
8720
FCE0
8400
8400
47F8
4484
8484
8504
86E4
7918
ENDCHAR
STARTCHAR ecaron
ENCODING 283
SWIDTH 490 0
DWIDTH 16 0
BBX 15 31 1 0
BITMAP
1C70
1288
1290
0910
08A0
04C0
04C0
0380
1000
EFFC
4482
4482
4482
467C
4580
B400
CC00
87E0
4420
4410
4410
8720
FCE0
8400
8400
47F8
4484
8484
8504
86E4
7918
ENDCHAR
STARTCHAR Gcircumflex
ENCODING 284
SWIDTH 557 0
DWIDTH 18 0
BBX 18 32 0 -1
BITMAP
00F000
011000
012800
022800
044400
04A200
04A200
031C00
080000
17F300
204D00
202100
204100
1F8100
117F00
210000
3D0000
210000
220F80
221080
221080
420880
7E0880
421680
421980
45F080
424880
824880
464880
3810C0
27EF00
180000
ENDCHAR
STARTCHAR gcircumflex
ENCODING 285
SWIDTH 557 0
DWIDTH 18 0
BBX 18 32 0 -1
BITMAP
00F000
011000
012800
022800
044400
04A200
04A200
031C00
080000
17F300
204D00
202100
204100
1F8100
117F00
210000
3D0000
210000
220F80
221080
221080
420880
7E0880
421680
421980
45F080
424880
824880
464880
3810C0
27EF00
180000
ENDCHAR
STARTCHAR Gbreve
ENCODING 286
SWIDTH 557 0
DWIDTH 18 0
BBX 18 32 0 -1
BITMAP
030800
0D1600
091200
04A400
04F400
048C00
070800
01F000
080000
17F300
204D00
202100
204100
1F8100
117F00
210000
3D0000
210000
220F80
221080
221080
420880
7E0880
421680
421980
45F080
424880
824880
464880
3810C0
27EF00
180000
ENDCHAR
STARTCHAR gbreve
ENCODING 287
SWIDTH 557 0
DWIDTH 18 0
BBX 18 32 0 -1
BITMAP
030800
0D1600
091200
04A400
04F400
048C00
070800
01F000
080000
17F300
204D00
202100
204100
1F8100
117F00
210000
3D0000
210000
220F80
221080
221080
420880
7E0880
421680
421980
45F080
424880
824880
464880
3810C0
27EF00
180000
ENDCHAR
STARTCHAR Gdotaccent
ENCODING 288
SWIDTH 557 0
DWIDTH 18 0
BBX 18 30 0 -1
BITMAP
00F800
011000
009000
009000
00F000
000000
080000
17F300
204D00
202100
204100
1F8100
117F00
210000
3D0000
210000
220F80
221080
221080
420880
7E0880
421680
421980
45F080
424880
824880
464880
3810C0
27EF00
180000
ENDCHAR
STARTCHAR gdotaccent
ENCODING 289
SWIDTH 557 0
DWIDTH 18 0
BBX 18 30 0 -1
BITMAP
00F800
011000
009000
009000
00F000
000000
080000
17F300
204D00
202100
204100
1F8100
117F00
210000
3D0000
210000
220F80
221080
221080
420880
7E0880
421680
421980
45F080
424880
824880
464880
3810C0
27EF00
180000
ENDCHAR
STARTCHAR Gcommaaccent
ENCODING 290
SWIDTH 557 0
DWIDTH 18 0
BBX 18 31 0 -8
BITMAP
080000
17F300
204D00
202100
204100
1F8100
117F00
210000
3D0000
210000
220F80
221080
221080
420880
7E0880
421680
421980
45F080
424880
824880
464880
3810C0
27EF00
180000
00C000
012000
012000
024000
048000
048000
030000
ENDCHAR
STARTCHAR gcommaaccent
ENCODING 291
SWIDTH 557 0
DWIDTH 18 0
BBX 18 31 0 -8
BITMAP
080000
17F300
204D00
202100
204100
1F8100
117F00
210000
3D0000
210000
220F80
221080
221080
420880
7E0880
421680
421980
45F080
424880
824880
464880
3810C0
27EF00
180000
00C000
012000
012000
024000
048000
048000
030000
ENDCHAR
STARTCHAR Hcircumflex
ENCODING 292
SWIDTH 611 0
DWIDTH 20 0
BBX 19 31 1 0
BITMAP
01E000
022000
022000
045000
088800
094400
092400
063800
100600
EE3180
441080
441080
441100
441100
441100
B41080
CC1E80
841100
441100
4411C0
441E40
846820
FF8820
850840
850780
457900
879100
841100
842080
842180
781E00
ENDCHAR
STARTCHAR hcircumflex
ENCODING 293
SWIDTH 611 0
DWIDTH 20 0
BBX 19 31 1 0
BITMAP
01E000
022000
022000
045000
088800
094400
092400
063800
100600
EE3180
441080
441080
441100
441100
441100
B41080
CC1E80
841100
441100
4411C0
441E40
846820
FF8820
850840
850780
457900
879100
841100
842080
842180
781E00
ENDCHAR
STARTCHAR Hbar
ENCODING 294
SWIDTH 706 0
DWIDTH 23 0
BBX 22 23 1 0
BITMAP
0C0300
138460
210820
110420
710440
91FBF8
910204
BD0204
A30208
61FFF8
110440
110470
110790
211A08
3FE210
214210
2141E0
215E40
21E440
210440
210820
210840
1E0780
ENDCHAR
STARTCHAR hbar
ENCODING 295
SWIDTH 706 0
DWIDTH 23 0
BBX 22 23 1 0
BITMAP
0C0300
138460
210820
110420
710440
91FBF8
910204
BD0204
A30208
61FFF8
110440
110470
110790
211A08
3FE210
214210
2141E0
215E40
21E440
210440
210820
210840
1E0780
ENDCHAR
STARTCHAR Itilde
ENCODING 296
SWIDTH 266 0
DWIDTH 9 0
BBX 14 31 -2 0
BITMAP
1E38
1344
2348
2488
4C90
8A60
5260
31C0
0200
1DC0
0880
0880
0880
0880
0880
1680
1980
1080
0880
0880
0880
1080
1F80
1080
1080
0880
1080
1080
1080
1080
0F00
ENDCHAR
STARTCHAR itilde
ENCODING 297
SWIDTH 266 0
DWIDTH 9 0
BBX 14 31 -2 0
BITMAP
1E38
1344
2348
2488
4C90
8A60
5260
31C0
0200
1DC0
0880
0880
0880
0880
0880
1680
1980
1080
0880
0880
0880
1080
1F80
1080
1080
0880
1080
1080
1080
1080
0F00
ENDCHAR
STARTCHAR Imacron
ENCODING 298
SWIDTH 266 0
DWIDTH 9 0
BBX 9 27 0 0
BITMAP
7F00
8080
8080
7F00
0800
7700
2200
2200
2200
2200
2200
5A00
6600
4200
2200
2200
2200
4200
7E00
4200
4200
2200
4200
4200
4200
4200
3C00
ENDCHAR
STARTCHAR imacron
ENCODING 299
SWIDTH 266 0
DWIDTH 9 0
BBX 9 27 0 0
BITMAP
7F00
8080
8080
7F00
0800
7700
2200
2200
2200
2200
2200
5A00
6600
4200
2200
2200
2200
4200
7E00
4200
4200
2200
4200
4200
4200
4200
3C00
ENDCHAR
STARTCHAR Ibreve
ENCODING 300
SWIDTH 266 0
DWIDTH 9 0
BBX 11 31 -1 0
BITMAP
2080
C960
4920
4940
4FC0
48C0
78C0
1F80
0400
3B80
1100
1100
1100
1100
1100
2D00
3300
2100
1100
1100
1100
2100
3F00
2100
2100
1100
2100
2100
2100
2100
1E00
ENDCHAR
STARTCHAR ibreve
ENCODING 301
SWIDTH 266 0
DWIDTH 9 0
BBX 11 31 -1 0
BITMAP
2080
C960
4920
4940
4FC0
48C0
78C0
1F80
0400
3B80
1100
1100
1100
1100
1100
2D00
3300
2100
1100
1100
1100
2100
3F00
2100
2100
1100
2100
2100
2100
2100
1E00
ENDCHAR
STARTCHAR Iogonek
ENCODING 302
SWIDTH 266 0
DWIDTH 9 0
BBX 8 31 0 -8
BITMAP
08
77
22
22
22
22
22
5A
66
42
22
22
22
42
7E
42
42
22
42
42
42
42
3C
44
48
88
54
63
11
0A
04
ENDCHAR
STARTCHAR iogonek
ENCODING 303
SWIDTH 266 0
DWIDTH 9 0
BBX 8 31 0 -8
BITMAP
08
77
22
22
22
22
22
5A
66
42
22
22
22
42
7E
42
42
22
42
42
42
42
3C
44
48
88
54
63
11
0A
04
ENDCHAR
STARTCHAR Idotaccent
ENCODING 304
SWIDTH 266 0
DWIDTH 9 0
BBX 7 29 1 0
BITMAP
78
44
44
44
78
00
10
EE
44
44
44
44
44
B4
CC
84
44
44
44
84
FC
84
84
44
84
84
84
84
78
ENDCHAR
STARTCHAR dotlessi
ENCODING 305
SWIDTH 266 0
DWIDTH 9 0
BBX 7 23 1 0
BITMAP
10
EE
44
44
44
44
44
B4
CC
84
44
44
44
84
FC
84
84
44
84
84
84
84
78
ENDCHAR
STARTCHAR IJ
ENCODING 306
SWIDTH 750 0
DWIDTH 24 0
BBX 22 24 1 -1
BITMAP
100030
EE00CC
440084
440084
440084
440084
440084
B400F4
CC0084
840084
440084
443088
44D084
850884
FD08F4
858684
844684
442988
843088
841048
840824
840424
780478
000380
ENDCHAR
STARTCHAR ij
ENCODING 307
SWIDTH 749 0
DWIDTH 24 0
BBX 22 24 1 -1
BITMAP
100030
EE00CC
440084
440084
440084
440084
440084
B400F4
CC0084
840084
440084
443088
44D084
850884
FD08F4
858684
844684
442988
843088
841048
840824
840424
780478
000380
ENDCHAR
STARTCHAR Jcircumflex
ENCODING 308
SWIDTH 484 0
DWIDTH 16 0
BBX 17 32 -1 -1
BITMAP
001C00
002600
004600
004900
008900
011480
00A480
006300
000800
003600
002100
002200
002200
002200
002200
005A00
006600
004200
002200
182200
242200
442200
827E00
414200
22A200
146200
084200
083200
041200
021200
013C00
01C000
ENDCHAR
STARTCHAR jcircumflex
ENCODING 309
SWIDTH 482 0
DWIDTH 15 0
BBX 17 32 -1 -1
BITMAP
001C00
002600
004600
004900
008900
011480
00A480
006300
000800
003600
002100
002200
002200
002200
002200
005A00
006600
004200
002200
182200
242200
442200
827E00
414200
22A200
146200
084200
083200
041200
021200
013C00
01C000
ENDCHAR
STARTCHAR Kcommaaccent
ENCODING 310
SWIDTH 541 0
DWIDTH 17 0
BBX 17 30 1 -8
BITMAP
FC0C00
460B00
441100
442080
444100
448200
B56400
CD1800
860800
441000
442000
445000
869000
FC8800
85B400
86C400
448400
444200
844200
842100
842200
783C00
000000
038000
024000
044000
048000
090000
120000
0E0000
ENDCHAR
STARTCHAR kcommaaccent
ENCODING 311
SWIDTH 541 0
DWIDTH 17 0
BBX 17 30 1 -8
BITMAP
FC0C00
460B00
441100
442080
444100
448200
B56400
CD1800
860800
441000
442000
445000
869000
FC8800
85B400
86C400
448400
444200
844200
842100
842200
783C00
000000
038000
024000
044000
048000
090000
120000
0E0000
ENDCHAR
STARTCHAR kgreenlandic
ENCODING 312
SWIDTH 541 0
DWIDTH 17 0
BBX 17 22 1 0
BITMAP
FC0C00
460B00
441100
442080
444100
448200
B56400
CD1800
860800
441000
442000
445000
869000
FC8800
85B400
86C400
448400
444200
844200
842100
842200
783C00
ENDCHAR
STARTCHAR Lacute
ENCODING 313
SWIDTH 467 0
DWIDTH 15 0
BBX 15 30 1 0
BITMAP
0300
0480
0440
0880
0900
1200
0C00
1000
EE00
4400
4400
4400
4400
4400
B400
CC00
8400
4400
4400
4400
8400
FC00
8400
8400
47FC
8504
8502
8502
8444
7BBC
ENDCHAR
STARTCHAR lacute
ENCODING 314
SWIDTH 467 0
DWIDTH 15 0
BBX 15 30 1 0
BITMAP
0300
0480
0440
0880
0900
1200
0C00
1000
EE00
4400
4400
4400
4400
4400
B400
CC00
8400
4400
4400
4400
8400
FC00
8400
8400
47FC
8504
8502
8502
8444
7BBC
ENDCHAR
STARTCHAR Lcommaaccent
ENCODING 315
SWIDTH 467 0
DWIDTH 15 0
BBX 15 31 1 -8
BITMAP
1000
EE00
4400
4400
4400
4400
4400
B400
CC00
8400
4400
4400
4400
8400
FC00
8400
8400
47FC
8504
8502
8502
8444
7BBC
0000
0600
0500
0880
1100
1200
2400
1800
ENDCHAR
STARTCHAR lcommaaccent
ENCODING 316
SWIDTH 467 0
DWIDTH 15 0
BBX 15 31 1 -8
BITMAP
1000
EE00
4400
4400
4400
4400
4400
B400
CC00
8400
4400
4400
4400
8400
FC00
8400
8400
47FC
8504
8502
8502
8444
7BBC
0000
0600
0500
0880
1100
1200
2400
1800
ENDCHAR
STARTCHAR Lcaron
ENCODING 317
SWIDTH 467 0
DWIDTH 15 0
BBX 15 24 1 0
BITMAP
0038
1048
EE4C
4490
4520
4520
44C0
4400
B400
CC00
8400
4400
4400
4400
8400
FC00
8400
8400
47FC
8504
8502
8502
8444
7BBC
ENDCHAR
STARTCHAR lcaron
ENCODING 318
SWIDTH 467 0
DWIDTH 15 0
BBX 15 24 1 0
BITMAP
0038
1048
EE4C
4490
4520
4520
44C0
4400
B400
CC00
8400
4400
4400
4400
8400
FC00
8400
8400
47FC
8504
8502
8502
8444
7BBC
ENDCHAR
STARTCHAR Ldot
ENCODING 319
SWIDTH 611 0
DWIDTH 20 0
BBX 18 23 1 0
BITMAP
100000
EE0000
440000
440000
440000
440000
440000
B40000
CC0000
8407C0
440440
440480
440440
840780
FC0000
840000
840000
47FC00
850400
850200
850200
844400
7BBC00
ENDCHAR
STARTCHAR ldotaccent
ENCODING 320
SWIDTH 611 0
DWIDTH 20 0
BBX 18 23 1 0
BITMAP
100000
EE0000
440000
440000
440000
440000
440000
B40000
CC0000
8407C0
440440
440480
440440
840780
FC0000
840000
840000
47FC00
850400
850200
850200
844400
7BBC00
ENDCHAR
STARTCHAR Lslash
ENCODING 321
SWIDTH 505 0
DWIDTH 16 0
BBX 17 22 -1 0
BITMAP
0F8000
084000
088000
088000
088000
088000
0E8000
196000
08D000
788800
488800
888800
48F000
7F4000
088000
088000
08FF80
08A080
08A080
10A080
104E80
0FB180
ENDCHAR
STARTCHAR lslash
ENCODING 322
SWIDTH 505 0
DWIDTH 16 0
BBX 17 22 -1 0
BITMAP
0F8000
084000
088000
088000
088000
088000
0E8000
196000
08D000
788800
488800
888800
48F000
7F4000
088000
088000
08FF80
08A080
08A080
10A080
104E80
0FB180
ENDCHAR
STARTCHAR Nacute
ENCODING 323
SWIDTH 598 0
DWIDTH 19 0
BBX 17 30 1 0
BITMAP
003000
002800
004400
004800
009000
012000
00C000
100200
EE1D80
451080
451080
451080
449080
449080
B45E80
CF5180
845080
443080
463080
461080
860880
FDEF80
850880
848480
448480
444300
844280
844280
844480
783F00
ENDCHAR
STARTCHAR nacute
ENCODING 324
SWIDTH 598 0
DWIDTH 19 0
BBX 17 30 1 0
BITMAP
003000
002800
004400
004800
009000
012000
00C000
100200
EE1D80
451080
451080
451080
449080
449080
B45E80
CF5180
845080
443080
463080
461080
860880
FDEF80
850880
848480
448480
444300
844280
844280
844480
783F00
ENDCHAR
STARTCHAR Ncommaaccent
ENCODING 325
SWIDTH 598 0
DWIDTH 19 0
BBX 17 30 1 -8
BITMAP
FE1F80
451080
451080
451080
449080
449080
B45E80
CF5180
845080
443080
463080
461080
860880
FDEF80
850880
848480
448480
444300
844280
844280
844480
783F00
000000
018000
014000
022000
024000
048000
090000
070000
ENDCHAR
STARTCHAR ncommaaccent
ENCODING 326
SWIDTH 598 0
DWIDTH 19 0
BBX 17 30 1 -8
BITMAP
FE1F80
451080
451080
451080
449080
449080
B45E80
CF5180
845080
443080
463080
461080
860880
FDEF80
850880
848480
448480
444300
844280
844280
844480
783F00
000000
018000
014000
022000
024000
048000
090000
070000
ENDCHAR
STARTCHAR Ncaron
ENCODING 327
SWIDTH 598 0
DWIDTH 19 0
BBX 17 31 1 0
BITMAP
073800
092400
08C400
04C800
025000
023000
026000
01E000
100200
EE1D80
451080
451080
451080
449080
449080
B45E80
CF5180
845080
443080
463080
461080
860880
FDEF80
850880
848480
448480
444300
844280
844280
844480
783F00
ENDCHAR
STARTCHAR ncaron
ENCODING 328
SWIDTH 598 0
DWIDTH 19 0
BBX 17 31 1 0
BITMAP
073800
092400
08C400
04C800
025000
023000
026000
01E000
100200
EE1D80
451080
451080
451080
449080
449080
B45E80
CF5180
845080
443080
463080
461080
860880
FDEF80
850880
848480
448480
444300
844280
844280
844480
783F00
ENDCHAR
STARTCHAR napostrophe
ENCODING 329
SWIDTH 807 0
DWIDTH 26 0
BBX 25 22 0 0
BITMAP
1CFE1F00
24861080
24851080
48451100
90451100
90849100
60F45C80
008F5280
00845100
00845100
00843100
00861100
00861100
00FEEE80
00850880
00850900
00848500
00848500
00844300
00844300
00844480
00F83F00
ENDCHAR
STARTCHAR Eng
ENCODING 330
SWIDTH 595 0
DWIDTH 19 0
BBX 17 30 1 -8
BITMAP
FE0F00
451080
451080
451080
449080
449080
B45080
CF5080
845E80
443080
443080
461080
860900
FDE880
850880
848480
448680
844280
844280
844300
844500
783900
001C80
00F280
1F8280
204100
204200
201E00
21E000
1E0000
ENDCHAR
STARTCHAR eng
ENCODING 331
SWIDTH 595 0
DWIDTH 19 0
BBX 17 30 1 -8
BITMAP
FE0F00
451080
451080
451080
449080
449080
B45080
CF5080
845E80
443080
443080
461080
860900
FDE880
850880
848480
448680
844280
844280
844300
844500
783900
001C80
00F280
1F8280
204100
204200
201E00
21E000
1E0000
ENDCHAR
STARTCHAR Omacron
ENCODING 332
SWIDTH 612 0
DWIDTH 20 0
BBX 19 28 0 -1
BITMAP
02FC00
020400
020400
01FC00
080000
17F700
2049C0
202180
204080
1F8180
117F80
210840
3D0F40
210840
220840
220440
220440
420440
7E07A0
420440
420540
44FEC0
432040
822060
462060
380FC0
27F000
180000
ENDCHAR
STARTCHAR omacron
ENCODING 333
SWIDTH 612 0
DWIDTH 20 0
BBX 19 28 0 -1
BITMAP
02FC00
020400
020400
01FC00
080000
17F700
2049C0
202180
204080
1F8180
117F80
210840
3D0F40
210840
220840
220440
220440
420440
7E07A0
420440
420540
44FEC0
432040
822060
462060
380FC0
27F000
180000
ENDCHAR
STARTCHAR Obreve
ENCODING 334
SWIDTH 612 0
DWIDTH 20 0
BBX 19 32 0 -1
BITMAP
030C00
049200
049300
049200
02FA00
024400
038400
01F800
080000
17F700
2049C0
202180
204080
1F8180
117F80
210840
3D0F40
210840
220840
220440
220440
420440
7E07A0
420440
420540
44FEC0
432040
822060
462060
380FC0
27F000
180000
ENDCHAR
STARTCHAR obreve
ENCODING 335
SWIDTH 612 0
DWIDTH 20 0
BBX 19 32 0 -1
BITMAP
030C00
049200
049300
049200
02FA00
024400
038400
01F800
080000
17F700
2049C0
202180
204080
1F8180
117F80
210840
3D0F40
210840
220840
220440
220440
420440
7E07A0
420440
420540
44FEC0
432040
822060
462060
380FC0
27F000
180000
ENDCHAR
STARTCHAR Ohungarumlaut
ENCODING 336
SWIDTH 612 0
DWIDTH 20 0
BBX 19 31 0 -1
BITMAP
006380
005240
008C40
009480
012900
025200
01CE00
080000
17F700
2049C0
202180
204080
1F8180
117F80
210840
3D0F40
210840
220840
220440
220440
420440
7E07A0
420440
420540
44FEC0
432040
822060
462060
380FC0
27F000
180000
ENDCHAR
STARTCHAR ohungarumlaut
ENCODING 337
SWIDTH 612 0
DWIDTH 20 0
BBX 19 31 0 -1
BITMAP
006380
005240
008C40
009480
012900
025200
01CE00
080000
17F700
2049C0
202180
204080
1F8180
117F80
210840
3D0F40
210840
220840
220440
220440
420440
7E07A0
420440
420540
44FEC0
432040
822060
462060
380FC0
27F000
180000
ENDCHAR
STARTCHAR OE
ENCODING 338
SWIDTH 831 0
DWIDTH 27 0
BBX 27 24 0 -1
BITMAP
08000000
17F7FFC0
20494840
20214820
20414820
1F8167C0
117F5800
210B4000
3D0CC000
21087E00
22084200
22044100
22084100
42087200
7E0FCE00
42084000
420A4000
45FD7F80
42415040
82415040
46415040
381F6C40
27E79180
18000000
ENDCHAR
STARTCHAR oe
ENCODING 339
SWIDTH 831 0
DWIDTH 27 0
BBX 27 24 0 -1
BITMAP
08000000
17F7FFC0
20494840
20214820
20414820
1F8167C0
117F5800
210B4000
3D0CC000
21087E00
22084200
22044100
22084100
42087200
7E0FCE00
42084000
420A4000
45FD7F80
42415040
82415040
46415040
381F6C40
27E79180
18000000
ENDCHAR
STARTCHAR Racute
ENCODING 340
SWIDTH 532 0
DWIDTH 17 0
BBX 16 31 1 -1
BITMAP
0030
0048
0048
0090
0120
0120
00C0
1C00
6300
A060
6050
604F
5C81
4701
44E1
FC3A
84C6
8702
46EC
4510
4610
8508
FD84
86B4
8444
4442
8421
8421
8411
C416
3808
ENDCHAR
STARTCHAR racute
ENCODING 341
SWIDTH 532 0
DWIDTH 17 0
BBX 16 31 1 -1
BITMAP
0030
0048
0048
0090
0120
0120
00C0
1C00
6300
A060
6050
604F
5C81
4701
44E1
FC3A
84C6
8702
46EC
4510
4610
8508
FD84
86B4
8444
4442
8421
8421
8411
C416
3808
ENDCHAR
STARTCHAR Rcommaaccent
ENCODING 342
SWIDTH 532 0
DWIDTH 17 0
BBX 16 31 1 -8
BITMAP
1C00
6300
A060
6050
604F
5C81
4701
44E1
FC3A
84C6
8702
46EC
4510
4610
8508
FD84
86B4
8444
4442
8421
8421
8411
C416
3808
0300
0280
0440
0880
0900
1200
0C00
ENDCHAR
STARTCHAR rcommaaccent
ENCODING 343
SWIDTH 532 0
DWIDTH 17 0
BBX 16 31 1 -8
BITMAP
1C00
6300
A060
6050
604F
5C81
4701
44E1
FC3A
84C6
8702
46EC
4510
4610
8508
FD84
86B4
8444
4442
8421
8421
8411
C416
3808
0300
0280
0440
0880
0900
1200
0C00
ENDCHAR
STARTCHAR Rcaron
ENCODING 344
SWIDTH 532 0
DWIDTH 17 0
BBX 16 32 1 -1
BITMAP
1E70
1248
1188
0910
04A0
0440
04C0
0380
1C00
6300
A060
6050
604F
5C81
4701
44E1
FC3A
84C6
8702
46EC
4510
4610
8508
FD84
86B4
8444
4442
8421
8421
8411
C416
3808
ENDCHAR
STARTCHAR rcaron
ENCODING 345
SWIDTH 532 0
DWIDTH 17 0
BBX 16 32 1 -1
BITMAP
1E70
1248
1188
0910
04A0
0440
04C0
0380
1C00
6300
A060
6050
604F
5C81
4701
44E1
FC3A
84C6
8702
46EC
4510
4610
8508
FD84
86B4
8444
4442
8421
8421
8411
C416
3808
ENDCHAR
STARTCHAR Sacute
ENCODING 346
SWIDTH 442 0
DWIDTH 14 0
BBX 14 32 0 -1
BITMAP
00C0
00A0
0110
0220
0240
0480
0300
0000
0018
3FE4
5904
6504
4504
87F8
4200
2100
2100
1680
1880
0840
0420
0420
02D0
0310
0108
0708
7A84
8284
8248
80F0
5F00
2000
ENDCHAR
STARTCHAR sacute
ENCODING 347
SWIDTH 442 0
DWIDTH 14 0
BBX 14 32 0 -1
BITMAP
00C0
00A0
0110
0220
0240
0480
0300
0000
0018
3FE4
5904
6504
4504
87F8
4200
2100
2100
1680
1880
0840
0420
0420
02D0
0310
0108
0708
7A84
8284
8248
80F0
5F00
2000
ENDCHAR
STARTCHAR Scircumflex
ENCODING 348
SWIDTH 442 0
DWIDTH 14 0
BBX 14 33 0 -1
BITMAP
0780
0480
08C0
0920
1320
2310
2490
1CE0
0000
0018
3FE4
5904
6504
4504
87F8
4200
2100
2100
1680
1880
0840
0420
0420
02D0
0310
0108
0708
7A84
8284
8248
80F0
5F00
2000
ENDCHAR
STARTCHAR scircumflex
ENCODING 349
SWIDTH 442 0
DWIDTH 14 0
BBX 14 33 0 -1
BITMAP
0780
0480
08C0
0920
1320
2310
2490
1CE0
0000
0018
3FE4
5904
6504
4504
87F8
4200
2100
2100
1680
1880
0840
0420
0420
02D0
0310
0108
0708
7A84
8284
8248
80F0
5F00
2000
ENDCHAR
STARTCHAR Scedilla
ENCODING 350
SWIDTH 442 0
DWIDTH 14 0
BBX 14 30 0 -7
BITMAP
0018
3FE4
5904
6504
4504
87F8
4200
2100
2100
1680
1880
0840
0420
0420
02D0
0310
0108
0708
7A84
8284
8248
80F0
5F40
2140
0140
0E20
11C0
11C0
1600
0800
ENDCHAR
STARTCHAR scedilla
ENCODING 351
SWIDTH 442 0
DWIDTH 14 0
BBX 14 30 0 -7
BITMAP
0018
3FE4
5904
6504
4504
87F8
4200
2100
2100
1680
1880
0840
0420
0420
02D0
0310
0108
0708
7A84
8284
8248
80F0
5F40
2140
0140
0E20
11C0
11C0
1600
0800
ENDCHAR
STARTCHAR Scaron
ENCODING 352
SWIDTH 442 0
DWIDTH 14 0
BBX 14 32 0 -1
BITMAP
1CE0
2490
1310
1320
0940
08C0
0580
0780
0018
3FE4
5904
6504
4504
87F8
4200
2100
2100
1680
1880
0840
0420
0420
02D0
0310
0108
0708
7A84
8284
8248
80F0
5F00
2000
ENDCHAR
STARTCHAR scaron
ENCODING 353
SWIDTH 442 0
DWIDTH 14 0
BBX 14 32 0 -1
BITMAP
1CE0
2490
1310
1320
0940
08C0
0580
0780
0018
3FE4
5904
6504
4504
87F8
4200
2100
2100
1680
1880
0840
0420
0420
02D0
0310
0108
0708
7A84
8284
8248
80F0
5F00
2000
ENDCHAR
STARTCHAR Tcommaaccent
ENCODING 354
SWIDTH 453 0
DWIDTH 15 0
BBX 15 31 0 -8
BITMAP
4104
BFFC
8102
8102
8102
FFFC
0440
0440
0B40
0CC0
0840
0440
0440
0440
0840
0FC0
0840
0440
0440
0840
0840
0840
0780
0000
0600
0500
0880
1100
1200
2400
1800
ENDCHAR
STARTCHAR tcommaaccent
ENCODING 355
SWIDTH 453 0
DWIDTH 15 0
BBX 15 31 0 -8
BITMAP
4104
BFFC
8102
8102
8102
FFFC
0440
0440
0B40
0CC0
0840
0440
0440
0440
0840
0FC0
0840
0440
0440
0840
0840
0840
0780
0000
0600
0500
0880
1100
1200
2400
1800
ENDCHAR
STARTCHAR Tcaron
ENCODING 356
SWIDTH 453 0
DWIDTH 15 0
BBX 15 31 0 0
BITMAP
1C70
1288
1290
0910
08A0
04C0
04C0
0380
4104
BFFC
8102
8102
8102
FFFC
0440
0440
0B40
0CC0
0840
0440
0440
0440
0840
0FC0
0840
0440
0440
0840
0840
0840
0780
ENDCHAR
STARTCHAR tcaron
ENCODING 357
SWIDTH 453 0
DWIDTH 15 0
BBX 15 31 0 0
BITMAP
1C70
1288
1290
0910
08A0
04C0
04C0
0380
4104
BFFC
8102
8102
8102
FFFC
0440
0440
0B40
0CC0
0840
0440
0440
0440
0840
0FC0
0840
0440
0440
0840
0840
0840
0780
ENDCHAR
STARTCHAR Tbar
ENCODING 358
SWIDTH 455 0
DWIDTH 15 0
BBX 15 22 0 0
BITMAP
FFFC
8102
8102
8102
9EFC
6544
0440
0440
0FC0
1840
27F0
4008
4008
2008
3FF0
0840
0440
0440
0440
0840
0840
07C0
ENDCHAR
STARTCHAR tbar
ENCODING 359
SWIDTH 455 0
DWIDTH 15 0
BBX 15 22 0 0
BITMAP
FFFC
8102
8102
8102
9EFC
6544
0440
0440
0FC0
1840
27F0
4008
4008
2008
3FF0
0840
0440
0440
0440
0840
0840
07C0
ENDCHAR
STARTCHAR Utilde
ENCODING 360
SWIDTH 583 0
DWIDTH 19 0
BBX 18 32 0 -1
BITMAP
01E380
012480
023480
024900
04C900
08C600
092600
063C00
000000
3F1F80
211080
211080
211080
211080
221080
391680
251980
221080
220880
220880
220880
420880
7E0F40
420840
420E80
45F980
424180
824140
424140
381F40
27EF80
180000
ENDCHAR
STARTCHAR utilde
ENCODING 361
SWIDTH 583 0
DWIDTH 19 0
BBX 18 32 0 -1
BITMAP
01E380
012480
023480
024900
04C900
08C600
092600
063C00
000000
3F1F80
211080
211080
211080
211080
221080
391680
251980
221080
220880
220880
220880
420880
7E0F40
420840
420E80
45F980
424180
824140
424140
381F40
27EF80
180000
ENDCHAR
STARTCHAR Umacron
ENCODING 362
SWIDTH 583 0
DWIDTH 19 0
BBX 18 28 0 -1
BITMAP
03F800
040400
040400
03F800
000000
3F1F80
211080
211080
211080
211080
221080
391680
251980
221080
220880
220880
220880
420880
7E0F40
420840
420E80
45F980
424180
824140
424140
381F40
27EF80
180000
ENDCHAR
STARTCHAR umacron
ENCODING 363
SWIDTH 583 0
DWIDTH 19 0
BBX 18 28 0 -1
BITMAP
03F800
040400
040400
03F800
000000
3F1F80
211080
211080
211080
211080
221080
391680
251980
221080
220880
220880
220880
420880
7E0F40
420840
420E80
45F980
424180
824140
424140
381F40
27EF80
180000
ENDCHAR
STARTCHAR Ubreve
ENCODING 364
SWIDTH 583 0
DWIDTH 19 0
BBX 18 32 0 -1
BITMAP
060800
091400
092200
052400
04F400
048800
070800
01F000
000000
3F1F80
211080
211080
211080
211080
221080
391680
251980
221080
220880
220880
220880
420880
7E0F40
420840
420E80
45F980
424180
824140
424140
381F40
27EF80
180000
ENDCHAR
STARTCHAR ubreve
ENCODING 365
SWIDTH 583 0
DWIDTH 19 0
BBX 18 32 0 -1
BITMAP
060800
091400
092200
052400
04F400
048800
070800
01F000
000000
3F1F80
211080
211080
211080
211080
221080
391680
251980
221080
220880
220880
220880
420880
7E0F40
420840
420E80
45F980
424180
824140
424140
381F40
27EF80
180000
ENDCHAR
STARTCHAR Uring
ENCODING 366
SWIDTH 583 0
DWIDTH 19 0
BBX 18 33 0 -1
BITMAP
01F000
022800
024800
046400
08A400
07F400
041C00
040400
03F800
000000
3F1F80
211080
211080
211080
211080
221080
391680
251980
221080
220880
220880
220880
420880
7E0F40
420840
420E80
45F980
424180
824140
424140
381F40
27EF80
180000
ENDCHAR
STARTCHAR uring
ENCODING 367
SWIDTH 583 0
DWIDTH 19 0
BBX 18 33 0 -1
BITMAP
01F000
022800
024800
046400
08A400
07F400
041C00
040400
03F800
000000
3F1F80
211080
211080
211080
211080
221080
391680
251980
221080
220880
220880
220880
420880
7E0F40
420840
420E80
45F980
424180
824140
424140
381F40
27EF80
180000
ENDCHAR
STARTCHAR Uhungarumlaut
ENCODING 368
SWIDTH 583 0
DWIDTH 19 0
BBX 18 31 0 -1
BITMAP
00C700
00A480
011880
022900
025200
04A400
031C00
000000
3F1F80
211080
211080
211080
211080
221080
391680
251980
221080
220880
220880
220880
420880
7E0F40
420840
420E80
45F980
424180
824140
424140
381F40
27EF80
180000
ENDCHAR
STARTCHAR uhungarumlaut
ENCODING 369
SWIDTH 583 0
DWIDTH 19 0
BBX 18 31 0 -1
BITMAP
00C700
00A480
011880
022900
025200
04A400
031C00
000000
3F1F80
211080
211080
211080
211080
221080
391680
251980
221080
220880
220880
220880
420880
7E0F40
420840
420E80
45F980
424180
824140
424140
381F40
27EF80
180000
ENDCHAR
STARTCHAR Uogonek
ENCODING 370
SWIDTH 583 0
DWIDTH 19 0
BBX 18 30 0 -8
BITMAP
3F1F80
211080
211080
211080
211080
221080
391680
251980
221080
220880
220880
220880
420880
7E0F40
420840
420E80
45F980
424180
824140
424140
381F40
27EF80
180900
000900
001200
001F80
000840
000440
000280
000100
ENDCHAR
STARTCHAR uogonek
ENCODING 371
SWIDTH 583 0
DWIDTH 19 0
BBX 18 30 0 -8
BITMAP
3F1F80
211080
211080
211080
211080
221080
391680
251980
221080
220880
220880
220880
420880
7E0F40
420840
420E80
45F980
424180
824140
424140
381F40
27EF80
180900
000900
001200
001F80
000840
000440
000280
000100
ENDCHAR
STARTCHAR Wcircumflex
ENCODING 372
SWIDTH 735 0
DWIDTH 24 0
BBX 23 31 0 -1
BITMAP
003C00
004400
004400
008A00
011100
012880
012480
00C700
180038
440046
843E42
844242
444244
446244
42A284
5EEDF4
62B184
229184
229188
219088
110908
11EF88
1F0978
111908
091510
0A1510
0A1610
0A1610
0A1210
09E330
060040
ENDCHAR
STARTCHAR wcircumflex
ENCODING 373
SWIDTH 735 0
DWIDTH 24 0
BBX 23 31 0 -1
BITMAP
003C00
004400
004400
008A00
011100
012880
012480
00C700
180038
440046
843E42
844242
444244
446244
42A284
5EEDF4
62B184
229184
229188
219088
110908
11EF88
1F0978
111908
091510
0A1510
0A1610
0A1610
0A1210
09E330
060040
ENDCHAR
STARTCHAR Ycircumflex
ENCODING 374
SWIDTH 484 0
DWIDTH 16 0
BBX 17 31 -1 0
BITMAP
01E000
022000
026000
045000
088800
094400
094400
063800
000000
180E00
680980
441080
821080
421100
212100
12F200
144A00
084200
088400
048400
030800
010800
02C800
023000
021000
042000
042000
084000
084000
064000
018000
ENDCHAR
STARTCHAR ycircumflex
ENCODING 375
SWIDTH 484 0
DWIDTH 16 0
BBX 17 31 -1 0
BITMAP
01E000
022000
026000
045000
088800
094400
094400
063800
000000
180E00
680980
441080
821080
421100
212100
12F200
144A00
084200
088400
048400
030800
010800
02C800
023000
021000
042000
042000
084000
084000
064000
018000
ENDCHAR
STARTCHAR Ydieresis
ENCODING 376
SWIDTH 484 0
DWIDTH 16 0
BBX 17 28 -1 0
BITMAP
0FB800
114400
094400
094400
0F3C00
000000
180E00
680980
441080
821080
421100
212100
12F200
144A00
084200
088400
048400
030800
010800
02C800
023000
021000
042000
042000
084000
084000
064000
018000
ENDCHAR
STARTCHAR Zacute
ENCODING 377
SWIDTH 458 0
DWIDTH 15 0
BBX 15 30 0 0
BITMAP
0060
0090
0090
0120
0220
0240
0180
0000
3FF8
4104
4104
4106
2EFC
1108
0308
02D0
0250
0420
0420
0840
1880
1480
2280
2100
43F8
8304
8504
8504
6C78
3388
ENDCHAR
STARTCHAR zacute
ENCODING 378
SWIDTH 458 0
DWIDTH 15 0
BBX 15 30 0 0
BITMAP
0060
0090
0090
0120
0220
0240
0180
0000
3FF8
4104
4104
4106
2EFC
1108
0308
02D0
0250
0420
0420
0840
1880
1480
2280
2100
43F8
8304
8504
8504
6C78
3388
ENDCHAR
STARTCHAR Zdotaccent
ENCODING 379
SWIDTH 458 0
DWIDTH 15 0
BBX 15 29 0 0
BITMAP
03C0
0440
0440
0440
0380
0000
0000
3FF8
4104
4104
4106
2EFC
1108
0308
02D0
0250
0420
0420
0840
1880
1480
2280
2100
43F8
8304
8504
8504
6C78
3388
ENDCHAR
STARTCHAR zdotaccent
ENCODING 380
SWIDTH 458 0
DWIDTH 15 0
BBX 15 29 0 0
BITMAP
03C0
0440
0440
0440
0380
0000
0000
3FF8
4104
4104
4106
2EFC
1108
0308
02D0
0250
0420
0420
0840
1880
1480
2280
2100
43F8
8304
8504
8504
6C78
3388
ENDCHAR
STARTCHAR Zcaron
ENCODING 381
SWIDTH 458 0
DWIDTH 15 0
BBX 15 31 0 0
BITMAP
1C70
1288
1290
0920
0920
04C0
04C0
0380
0000
3FF8
4104
4104
4106
2EFC
1108
0308
02D0
0250
0420
0420
0840
1880
1480
2280
2100
43F8
8304
8504
8504
6C78
3388
ENDCHAR
STARTCHAR zcaron
ENCODING 382
SWIDTH 458 0
DWIDTH 15 0
BBX 15 31 0 0
BITMAP
1C70
1288
1290
0920
0920
04C0
04C0
0380
0000
3FF8
4104
4104
4106
2EFC
1108
0308
02D0
0250
0420
0420
0840
1880
1480
2280
2100
43F8
8304
8504
8504
6C78
3388
ENDCHAR
STARTCHAR AEacute
ENCODING 508
SWIDTH 797 0
DWIDTH 26 0
BBX 26 31 -1 0
BITMAP
0000C000
00012000
00012000
00024000
00048000
00048000
00030000
00000000
00010000
0026FFC0
00584840
00444840
00824840
008467C0
01085800
030B4000
02DCC000
02387E00
04284200
04284100
08484100
08787200
168FCE00
11884000
20884000
21F87F80
42085040
82085040
44085040
64086E40
18079180
ENDCHAR
STARTCHAR aeacute
ENCODING 509
SWIDTH 797 0
DWIDTH 26 0
BBX 26 31 -1 0
BITMAP
0000C000
00012000
00012000
00024000
00048000
00048000
00030000
00000000
00010000
0026FFC0
00584840
00444840
00824840
008467C0
01085800
030B4000
02DCC000
02387E00
04284200
04284100
08484100
08787200
168FCE00
11884000
20884000
21F87F80
42085040
82085040
44085040
64086E40
18079180
ENDCHAR
STARTCHAR Oslashacute
ENCODING 510
SWIDTH 612 0
DWIDTH 20 0
BBX 19 31 0 -1
BITMAP
000C00
001200
002200
002400
004800
005000
007000
080000
17F780
204CC0
202840
204840
1F9080
117180
212140
3D5B40
214A40
228440
228840
230C40
421440
7F17A0
44A440
446540
487EC0
48A040
90A060
612060
210FC0
23F000
1E0000
ENDCHAR
STARTCHAR oslashacute
ENCODING 511
SWIDTH 612 0
DWIDTH 20 0
BBX 19 31 0 -1
BITMAP
000C00
001200
002200
002400
004800
005000
007000
080000
17F780
204CC0
202840
204840
1F9080
117180
212140
3D5B40
214A40
228440
228840
230C40
421440
7F17A0
44A440
446540
487EC0
48A040
90A060
612060
210FC0
23F000
1E0000
ENDCHAR
STARTCHAR dotlessj
ENCODING 567
SWIDTH 482 0
DWIDTH 15 0
BBX 16 23 -1 -1
BITMAP
003E
0021
0022
0022
0022
0022
005A
0066
0042
0022
1822
2422
4422
827E
4142
22A2
1462
0842
0832
0412
0212
013C
01C0
ENDCHAR
STARTCHAR circumflex
ENCODING 710
SWIDTH 308 0
DWIDTH 10 0
BBX 10 8 0 24
BITMAP
1E00
1200
2300
4500
4C80
9440
9240
6380
ENDCHAR
STARTCHAR caron
ENCODING 711
SWIDTH 310 0
DWIDTH 10 0
BBX 10 8 0 24
BITMAP
F380
9240
8C40
4880
2500
2200
2600
1C00
ENDCHAR
STARTCHAR breve
ENCODING 728
SWIDTH 333 0
DWIDTH 11 0
BBX 11 8 0 24
BITMAP
6080
9140
9220
5240
4F40
4880
7080
1F00
ENDCHAR
STARTCHAR dotaccent
ENCODING 729
SWIDTH 166 0
DWIDTH 5 0
BBX 5 5 0 24
BITMAP
78
88
88
48
78
ENDCHAR
STARTCHAR ring
ENCODING 730
SWIDTH 309 0
DWIDTH 10 0
BBX 10 9 0 24
BITMAP
1F00
2500
4480
4C80
9240
7E40
4180
4080
3F00
ENDCHAR
STARTCHAR ogonek
ENCODING 731
SWIDTH 226 0
DWIDTH 7 0
BBX 7 10 0 -8
BITMAP
38
44
48
48
90
7C
42
32
0A
0C
ENDCHAR
STARTCHAR tilde
ENCODING 732
SWIDTH 410 0
DWIDTH 13 0
BBX 13 8 0 24
BITMAP
1E70
1248
2388
4590
4C90
9460
9240
63C0
ENDCHAR
STARTCHAR hungarumlaut
ENCODING 733
SWIDTH 361 0
DWIDTH 12 0
BBX 12 7 0 24
BITMAP
18C0
24A0
2310
4620
8A40
9480
6300
ENDCHAR
STARTCHAR uni0312
ENCODING 786
SWIDTH 202 0
DWIDTH 6 0
BBX 6 7 0 15
BITMAP
1C
24
24
48
90
90
60
ENDCHAR
STARTCHAR uni0315
ENCODING 789
SWIDTH 202 0
DWIDTH 6 0
BBX 6 7 0 15
BITMAP
1C
24
24
48
90
90
60
ENDCHAR
STARTCHAR uni0326
ENCODING 806
SWIDTH 201 0
DWIDTH 6 0
BBX 6 7 0 -8
BITMAP
18
24
24
44
48
90
60
ENDCHAR
STARTCHAR Wgrave
ENCODING 7808
SWIDTH 735 0
DWIDTH 24 0
BBX 23 30 0 -1
BITMAP
007000
009000
009000
004800
004800
002400
003800
180038
440046
843E42
844242
444244
446244
42A284
5EEDF4
62B184
229184
229188
219088
110908
11EF88
1F0978
111908
091510
0A1510
0A1610
0A1610
0A1210
09E330
060040
ENDCHAR
STARTCHAR wgrave
ENCODING 7809
SWIDTH 735 0
DWIDTH 24 0
BBX 23 30 0 -1
BITMAP
007000
009000
009000
004800
004800
002400
003800
180038
440046
843E42
844242
444244
446244
42A284
5EEDF4
62B184
229184
229188
219088
110908
11EF88
1F0978
111908
091510
0A1510
0A1610
0A1610
0A1210
09E330
060040
ENDCHAR
STARTCHAR Wacute
ENCODING 7810
SWIDTH 735 0
DWIDTH 24 0
BBX 23 30 0 -1
BITMAP
000300
000480
000880
000900
001200
003400
001C00
180038
440046
843E42
844242
444244
446244
42A284
5EEDF4
62B184
229184
229188
219088
110908
11EF88
1F0978
111908
091510
0A1510
0A1610
0A1610
0A1210
09E330
060040
ENDCHAR
STARTCHAR wacute
ENCODING 7811
SWIDTH 735 0
DWIDTH 24 0
BBX 23 30 0 -1
BITMAP
000300
000480
000880
000900
001200
003400
001C00
180038
440046
843E42
844242
444244
446244
42A284
5EEDF4
62B184
229184
229188
219088
110908
11EF88
1F0978
111908
091510
0A1510
0A1610
0A1610
0A1210
09E330
060040
ENDCHAR
STARTCHAR Wdieresis
ENCODING 7812
SWIDTH 735 0
DWIDTH 24 0
BBX 23 28 0 -1
BITMAP
01E780
022880
012880
012880
01E700
180038
440046
843E42
844242
444244
446244
42A284
5EEDF4
62B184
229184
229188
219088
110908
11EF88
1F0978
111908
091510
0A1510
0A1610
0A1610
0A1210
09E330
060040
ENDCHAR
STARTCHAR wdieresis
ENCODING 7813
SWIDTH 735 0
DWIDTH 24 0
BBX 23 28 0 -1
BITMAP
01E780
022880
012880
012880
01E700
180038
440046
843E42
844242
444244
446244
42A284
5EEDF4
62B184
229184
229188
219088
110908
11EF88
1F0978
111908
091510
0A1510
0A1610
0A1610
0A1210
09E330
060040
ENDCHAR
STARTCHAR Ygrave
ENCODING 7922
SWIDTH 484 0
DWIDTH 16 0
BBX 17 29 -1 0
BITMAP
038000
048000
048000
024000
024000
012000
01C000
180E00
680980
441080
821080
421100
212100
12F200
144A00
084200
088400
048400
030800
010800
02C800
023000
021000
042000
042000
084000
084000
064000
018000
ENDCHAR
STARTCHAR ygrave
ENCODING 7923
SWIDTH 484 0
DWIDTH 16 0
BBX 17 29 -1 0
BITMAP
038000
048000
048000
024000
024000
012000
01C000
180E00
680980
441080
821080
421100
212100
12F200
144A00
084200
088400
048400
030800
010800
02C800
023000
021000
042000
042000
084000
084000
064000
018000
ENDCHAR
STARTCHAR endash
ENCODING 8211
SWIDTH 591 0
DWIDTH 19 0
BBX 17 6 1 8
BITMAP
662000
9BDF80
821080
821080
821080
7FFF80
ENDCHAR
STARTCHAR emdash
ENCODING 8212
SWIDTH 726 0
DWIDTH 23 0
BBX 21 6 1 8
BITMAP
600000
9F7FF8
810208
810208
810208
7FFFF8
ENDCHAR
STARTCHAR quoteleft
ENCODING 8216
SWIDTH 291 0
DWIDTH 9 0
BBX 9 12 0 11
BITMAP
0F00
0880
1080
1100
3100
2D00
2100
4200
4400
8400
8400
7C00
ENDCHAR
STARTCHAR quoteright
ENCODING 8217
SWIDTH 291 0
DWIDTH 9 0
BBX 9 12 0 11
BITMAP
0F00
0880
1080
1100
3100
2D00
2100
4200
4400
8400
8400
7C00
ENDCHAR
STARTCHAR quotesinglbase
ENCODING 8218
SWIDTH 228 0
DWIDTH 7 0
BBX 8 8 -1 -4
BITMAP
1E
12
21
42
84
84
88
70
ENDCHAR
STARTCHAR quotedblleft
ENCODING 8220
SWIDTH 532 0
DWIDTH 17 0
BBX 17 12 0 11
BITMAP
0F1F00
089080
109080
111100
313100
2D2E00
214200
424200
448400
848400
848400
7C7C00
ENDCHAR
STARTCHAR quotedblright
ENCODING 8221
SWIDTH 532 0
DWIDTH 17 0
BBX 17 12 0 11
BITMAP
0F1F00
089080
109080
111100
313100
2D2E00
214200
424200
448400
848400
848400
7C7C00
ENDCHAR
STARTCHAR quotedblbase
ENCODING 8222
SWIDTH 448 0
DWIDTH 14 0
BBX 15 8 -1 -4
BITMAP
1E3C
1224
2142
4286
8588
8508
8910
70E0
ENDCHAR
STARTCHAR dagger
ENCODING 8224
SWIDTH 453 0
DWIDTH 15 0
BBX 13 26 1 -2
BITMAP
0F80
1840
0880
0880
4880
98F0
8888
9088
9F88
B0F0
4880
0880
0880
0880
1080
1E80
1180
1080
0880
0880
1080
1080
1080
1080
1980
0600
ENDCHAR
STARTCHAR daggerdbl
ENCODING 8225
SWIDTH 462 0
DWIDTH 15 0
BBX 13 26 1 -2
BITMAP
0F80
0840
0880
0880
4890
B8E8
8888
8888
9F48
90F0
4880
0880
0880
0880
0880
4E90
B1E8
8888
8888
8888
B8F0
5080
1080
1040
0980
0600
ENDCHAR
STARTCHAR bullet
ENCODING 8226
SWIDTH 275 0
DWIDTH 9 0
BBX 5 5 2 9
BITMAP
F8
88
88
88
70
ENDCHAR
STARTCHAR ellipsis
ENCODING 8230
SWIDTH 605 0
DWIDTH 19 0
BBX 18 5 1 0
BITMAP
71C380
8A2440
8A2440
8A2480
FBE7C0
ENDCHAR
STARTCHAR perthousand
ENCODING 8240
SWIDTH 1249 0
DWIDTH 40 0
BBX 38 22 1 0
BITMAP
7F00000000
E087800000
90C4400000
9CC4800000
9344800000
9248800000
9248800000
B24E800000
CE51000000
C251200600
C2515F89F8
3F92704E0C
001288A90C
003A8FA9F4
0026922924
0022922924
0024922924
0024BA2BA4
0044C62C64
0044C23424
003C41CC38
00003F83D8
ENDCHAR
STARTCHAR guilsinglleft
ENCODING 8249
SWIDTH 359 0
DWIDTH 12 0
BBX 10 14 1 4
BITMAP
0780
0880
1040
6080
8100
8600
8800
F400
8200
4180
3040
0880
0580
0200
ENDCHAR
STARTCHAR guilsinglright
ENCODING 8250
SWIDTH 359 0
DWIDTH 12 0
BBX 10 14 1 4
BITMAP
7000
8800
8600
8180
6040
1040
0880
1DC0
2240
C180
8200
8400
4800
3000
ENDCHAR
STARTCHAR fraction
ENCODING 8260
SWIDTH 266 0
DWIDTH 9 0
BBX 9 20 0 1
BITMAP
0F00
0880
0900
1100
1100
1200
3E00
2200
2200
2200
2400
2400
7400
4C00
4400
4800
4800
8800
8800
7800
ENDCHAR
STARTCHAR Euro
ENCODING 8364
SWIDTH 690 0
DWIDTH 22 0
BBX 20 24 1 -1
BITMAP
018000
027F20
0204D0
020410
020410
03F010
1A1FE0
271000
22D000
222000
222000
1C2000
FC2000
842000
87A000
842000
BC4060
445F90
086410
084410
0C4410
0783E0
02FC00
010000
ENDCHAR
STARTCHAR partialdiff
ENCODING 8706
SWIDTH 519 0
DWIDTH 17 0
BBX 18 23 -1 -1
BITMAP
00F800
010800
010800
008800
008400
008400
005E00
006200
00C200
034200
042200
0C2200
142100
62EF00
85B100
4A1100
51D100
303080
101080
1C1040
031080
00CF00
003000
ENDCHAR
STARTCHAR minus
ENCODING 8722
SWIDTH 467 0
DWIDTH 15 0
BBX 13 6 1 8
BITMAP
4210
BFE8
8108
8108
8208
FFF8
ENDCHAR
STARTCHAR fi
ENCODING 64257
SWIDTH 741 0
DWIDTH 24 0
BBX 22 23 1 0
BITMAP
100020
EFFCD8
448284
448288
448288
467C88
458088
B400C8
CC0118
87E088
442088
441088
441088
872088
FCE0F4
840088
840088
440088
440088
840088
840108
840104
7800F8
ENDCHAR
STARTCHAR fl
ENCODING 64258
SWIDTH 942 0
DWIDTH 30 0
BBX 30 23 1 0
BITMAP
10002000
EFFCD800
44828400
44828800
44828800
467C8800
45808800
B400C800
CC011800
87E08800
44208800
44108800
44108800
87208800
FCE0F400
84008800
84008800
44008FF8
44008A04
84008A04
84010A04
840104C4
7800FF38
ENDCHAR
STARTCHAR .notdef
ENCODING -1
SWIDTH 200 0
DWIDTH 6 0
BBX 1 1 0 0
BITMAP
00
ENDCHAR
STARTCHAR .null
ENCODING -1
SWIDTH 0 0
DWIDTH 0 0
BBX 1 1 0 0
BITMAP
00
ENDCHAR
STARTCHAR nonmarkingreturn
ENCODING -1
SWIDTH 200 0
DWIDTH 6 0
BBX 1 1 0 0
BITMAP
00
ENDCHAR
ENDFONT
